<svg xmlns="http://www.w3.org/2000/svg" xmlns:xlink="http://www.w3.org/1999/xlink" viewBox="0 0 426.13 538.06"><defs><style>.cls-1{fill:url(#linear-gradient);}.cls-2{fill:#a07f68;}.cls-3{fill:#344563;}.cls-4,.cls-40,.cls-7{fill:#dee1e4;}.cls-5{fill:url(#linear-gradient-2);}.cls-6{fill:url(#linear-gradient-3);}.cls-38,.cls-40,.cls-42,.cls-59,.cls-63,.cls-7,.cls-92,.cls-93{mix-blend-mode:multiply;}.cls-8{fill:#ff991f;}.cls-9{fill:#008da6;}.cls-10{isolation:isolate;}.cls-11{fill:#79e2f2;}.cls-12,.cls-134,.cls-55{fill:none;}.cls-13{fill:url(#linear-gradient-4);}.cls-14{fill:url(#linear-gradient-5);}.cls-15{fill:url(#linear-gradient-7);}.cls-16{fill:url(#linear-gradient-8);}.cls-17{fill:url(#linear-gradient-9);}.cls-18{fill:url(#linear-gradient-10);}.cls-19{fill:url(#linear-gradient-11);}.cls-20{fill:url(#linear-gradient-14);}.cls-21{fill:url(#linear-gradient-15);}.cls-22{fill:url(#linear-gradient-16);}.cls-23{fill:url(#linear-gradient-17);}.cls-24{fill:url(#linear-gradient-18);}.cls-25{fill:#00b8d9;}.cls-26{fill:#b3f5ff;}.cls-27{fill:#00bfdf;}.cls-28{fill:url(#linear-gradient-19);}.cls-29{fill:url(#linear-gradient-20);}.cls-30{fill:url(#linear-gradient-21);}.cls-31{fill:url(#linear-gradient-22);}.cls-32{fill:url(#linear-gradient-23);}.cls-33{fill:url(#linear-gradient-24);}.cls-34{fill:url(#linear-gradient-25);}.cls-35{fill:url(#linear-gradient-26);}.cls-36{fill:url(#linear-gradient-27);}.cls-37{clip-path:url(#clip-path);}.cls-39{clip-path:url(#clip-path-2);}.cls-40,.cls-42,.cls-69{opacity:0.6;}.cls-41{clip-path:url(#clip-path-3);}.cls-42{fill:url(#linear-gradient-30);}.cls-43{clip-path:url(#clip-path-4);}.cls-44{fill:url(#linear-gradient-32);}.cls-45{fill:#0065ff;}.cls-46{fill:url(#linear-gradient-33);}.cls-47{fill:#0049b0;}.cls-48{fill:url(#linear-gradient-34);}.cls-49{fill:#d2b494;}.cls-50{fill:url(#linear-gradient-35);}.cls-51{fill:url(#New_Gradient_Swatch_18);}.cls-52{fill:#ffe380;}.cls-53{fill:url(#linear-gradient-36);}.cls-54{fill:url(#radial-gradient);}.cls-55{stroke:#0065ff;stroke-width:2px;}.cls-134,.cls-55{stroke-miterlimit:10;}.cls-56{fill:#ffc400;}.cls-57{fill:#ff5630;}.cls-58{fill:url(#radial-gradient-2);}.cls-59,.cls-60{fill:#c1c7d0;}.cls-61{fill:url(#linear-gradient-37);}.cls-62{fill:#f9f9f8;}.cls-63{opacity:0.4;fill:url(#linear-gradient-38);}.cls-64{clip-path:url(#clip-path-5);}.cls-65{fill:url(#linear-gradient-39);}.cls-66{fill:#42526e;}.cls-67{fill:#0052cc;}.cls-68{fill:url(#linear-gradient-40);}.cls-69{fill:url(#linear-gradient-41);}.cls-70{clip-path:url(#clip-path-6);}.cls-71{fill:url(#linear-gradient-42);}.cls-72{fill:url(#linear-gradient-43);}.cls-73{fill:#172b4d;}.cls-74{fill:url(#linear-gradient-44);}.cls-75{fill:url(#linear-gradient-45);}.cls-76{fill:url(#linear-gradient-46);}.cls-77{fill:url(#New_Gradient_Swatch_18-2);}.cls-78{fill:#ff7452;}.cls-79{fill:#ffab00;}.cls-80{fill:url(#linear-gradient-47);}.cls-81{fill:url(#linear-gradient-48);}.cls-82{fill:url(#linear-gradient-49);}.cls-83{fill:url(#linear-gradient-50);}.cls-84{clip-path:url(#clip-path-7);}.cls-85{fill:url(#linear-gradient-51);}.cls-86{fill:#00a3bf;}.cls-87{fill:url(#linear-gradient-52);}.cls-88{fill:url(#linear-gradient-53);}.cls-89{fill:url(#linear-gradient-54);}.cls-90{fill:url(#linear-gradient-55);}.cls-91{fill:url(#linear-gradient-56);}.cls-92{fill:url(#linear-gradient-57);}.cls-93{fill:url(#linear-gradient-58);}.cls-94{fill:url(#linear-gradient-59);}.cls-95{fill:#fed939;}.cls-96{fill:url(#linear-gradient-60);}.cls-97{fill:#ff8b00;opacity:0.5;}.cls-98{fill:url(#linear-gradient-61);}.cls-99{fill:url(#linear-gradient-62);}.cls-100{fill:url(#linear-gradient-63);}.cls-101{clip-path:url(#clip-path-8);}.cls-102,.cls-114{fill:#97a0af;}.cls-103{fill:url(#linear-gradient-64);}.cls-104{fill:#ae8e76;}.cls-105{clip-path:url(#clip-path-9);}.cls-106{fill:url(#linear-gradient-65);}.cls-107{clip-path:url(#clip-path-10);}.cls-108{fill:#7a869a;}.cls-109{fill:url(#linear-gradient-66);}.cls-110{fill:url(#linear-gradient-67);}.cls-111{fill:url(#linear-gradient-68);}.cls-112{fill:url(#linear-gradient-69);}.cls-113{fill:url(#linear-gradient-70);}.cls-114{opacity:0.2;}.cls-115{fill:url(#linear-gradient-71);}.cls-116{fill:url(#linear-gradient-72);}.cls-117{fill:url(#linear-gradient-73);}.cls-118{fill:url(#linear-gradient-74);}.cls-119{fill:url(#linear-gradient-75);}.cls-120{fill:url(#linear-gradient-76);}.cls-121{fill:url(#linear-gradient-77);}.cls-122{fill:url(#linear-gradient-78);}.cls-123{fill:url(#linear-gradient-79);}.cls-124{fill:url(#linear-gradient-80);}.cls-125{fill:url(#linear-gradient-81);}.cls-126{fill:url(#linear-gradient-82);}.cls-127{fill:#9a7761;}.cls-128{fill:#b28f7c;}.cls-129{fill:url(#radial-gradient-3);}.cls-130{fill:url(#radial-gradient-4);}.cls-131{fill:url(#New_Gradient_Swatch_17);}.cls-132{fill:url(#New_Gradient_Swatch_16);}.cls-133{fill:url(#New_Gradient_Swatch_16-2);}.cls-134{stroke:#ff5630;stroke-width:1.16px;}.cls-135{clip-path:url(#clip-path-11);}.cls-136{fill:url(#linear-gradient-83);}.cls-137{fill:#8a715e;}.cls-138{clip-path:url(#clip-path-12);}.cls-139{clip-path:url(#clip-path-13);}.cls-140{fill:url(#linear-gradient-84);}.cls-141{fill:url(#linear-gradient-85);}.cls-142{fill:#4c9aff;}.cls-143{fill:url(#linear-gradient-86);}.cls-144{fill:#de350b;}.cls-145{fill:#72594b;}.cls-146{fill:#253858;}.cls-147{fill:url(#linear-gradient-87);}</style><linearGradient id="linear-gradient" x1="120.71" y1="336.89" x2="320.37" y2="137.23" gradientTransform="translate(-16.52 457.6) rotate(-90)" gradientUnits="userSpaceOnUse"><stop offset="0.35" stop-color="#00c7e5"/><stop offset="0.82" stop-color="#b3f5ff"/></linearGradient><linearGradient id="linear-gradient-2" x1="253.44" y1="282.26" x2="359.83" y2="175.87" gradientUnits="userSpaceOnUse"><stop offset="0.09" stop-color="#ffab00"/><stop offset="0.48" stop-color="#ffb800"/><stop offset="1" stop-color="#ffc400"/></linearGradient><linearGradient id="linear-gradient-3" x1="110.81" y1="294.99" x2="372" y2="294.99" gradientUnits="userSpaceOnUse"><stop offset="0" stop-color="#00a3bf"/><stop offset="0.01" stop-color="#00a3c0"/><stop offset="0.59" stop-color="#00b3d2"/><stop offset="1" stop-color="#00b8d9"/></linearGradient><linearGradient id="linear-gradient-4" x1="288.5" y1="194.82" x2="288.5" y2="123.62" gradientUnits="userSpaceOnUse"><stop offset="0" stop-color="#00b8d9" stop-opacity="0"/><stop offset="0.52" stop-color="#00b8d9"/></linearGradient><linearGradient id="linear-gradient-5" x1="288.3" y1="194.82" x2="288.3" y2="123.62" xlink:href="#linear-gradient-4"/><linearGradient id="linear-gradient-7" x1="249.58" y1="202.01" x2="249.58" y2="149.94" xlink:href="#linear-gradient-4"/><linearGradient id="linear-gradient-8" x1="307.59" y1="202.11" x2="307.59" y2="150.05" xlink:href="#linear-gradient-4"/><linearGradient id="linear-gradient-9" x1="369.84" y1="202.11" x2="369.84" y2="150.05" xlink:href="#linear-gradient-4"/><linearGradient id="linear-gradient-10" x1="363.28" y1="202.11" x2="363.28" y2="150.05" xlink:href="#linear-gradient-4"/><linearGradient id="linear-gradient-11" x1="326.85" y1="194.82" x2="326.85" y2="123.62" xlink:href="#linear-gradient-4"/><linearGradient id="linear-gradient-14" x1="363.88" y1="169.31" x2="363.88" y2="123.62" xlink:href="#linear-gradient-4"/><linearGradient id="linear-gradient-15" x1="365.4" y1="169.31" x2="365.4" y2="123.62" xlink:href="#linear-gradient-4"/><linearGradient id="linear-gradient-16" x1="365.4" y1="202.11" x2="365.4" y2="150.05" xlink:href="#linear-gradient-4"/><linearGradient id="linear-gradient-17" x1="365.4" y1="169.31" x2="365.4" y2="123.62" xlink:href="#linear-gradient-4"/><linearGradient id="linear-gradient-18" x1="403.94" y1="194.78" x2="403.94" y2="123.59" xlink:href="#linear-gradient-4"/><linearGradient id="linear-gradient-19" x1="373.58" y1="148.17" x2="373.58" y2="197.54" gradientUnits="userSpaceOnUse"><stop offset="0" stop-color="#00c7e5"/><stop offset="0.25" stop-color="#00bfdf"/><stop offset="1" stop-color="#00b8d9" stop-opacity="0"/></linearGradient><linearGradient id="linear-gradient-20" x1="27.66" y1="104.44" x2="135.01" y2="104.44" gradientTransform="matrix(1, 0.04, -0.04, 1, 41.65, 20.9)" gradientUnits="userSpaceOnUse"><stop offset="0.24" stop-color="#0049b0"/><stop offset="0.7" stop-color="#0052cc"/></linearGradient><linearGradient id="linear-gradient-21" x1="126.19" y1="236.68" x2="213.11" y2="236.68" gradientTransform="matrix(1, -0.1, 0.1, 1, -90.81, -17.53)" gradientUnits="userSpaceOnUse"><stop offset="0" stop-color="#0049b0"/><stop offset="0.7" stop-color="#0065ff"/></linearGradient><linearGradient id="linear-gradient-22" x1="-777.15" y1="21.86" x2="-717.82" y2="21.86" gradientTransform="matrix(-0.95, -0.32, -0.32, 0.95, -652.23, -110.76)" gradientUnits="userSpaceOnUse"><stop offset="0" stop-color="#0052cc"/><stop offset="1" stop-color="#0049b0"/></linearGradient><linearGradient id="linear-gradient-23" x1="61.76" y1="128.88" x2="175.93" y2="128.88" gradientUnits="userSpaceOnUse"><stop offset="0" stop-color="#0052cc"/><stop offset="1" stop-color="#0065ff"/></linearGradient><linearGradient id="linear-gradient-24" x1="-321.69" y1="20.88" x2="-360.08" y2="-4.57" gradientTransform="matrix(-0.83, -0.55, -0.55, 0.83, -204.6, -75.16)" gradientUnits="userSpaceOnUse"><stop offset="0" stop-color="#0049b0"/><stop offset="1" stop-color="#0052cc"/></linearGradient><linearGradient id="linear-gradient-25" x1="72.39" y1="38.5" x2="66.18" y2="192.4" gradientUnits="userSpaceOnUse"><stop offset="0" stop-color="#0065ff"/><stop offset="1" stop-color="#0052cc"/></linearGradient><linearGradient id="linear-gradient-26" x1="-47.97" y1="128.29" x2="21.04" y2="128.29" gradientTransform="matrix(1.09, 0.17, -0.16, 1.02, 145.42, 24.3)" gradientUnits="userSpaceOnUse"><stop offset="0.09" stop-color="#0049b0"/><stop offset="0.53" stop-color="#0052cc"/><stop offset="1" stop-color="#0049b0"/></linearGradient><linearGradient id="linear-gradient-27" x1="87.2" y1="237.14" x2="354.11" y2="237.14" gradientUnits="userSpaceOnUse"><stop offset="0" stop-color="#c1c7d0"/><stop offset="1" stop-color="#dee1e4"/></linearGradient><clipPath id="clip-path"><rect class="cls-1" x="139.82" y="118.12" width="161.43" height="237.89" transform="translate(457.6 16.52) rotate(90)"/></clipPath><clipPath id="clip-path-2"><rect class="cls-4" x="270.23" y="156.04" width="66.72" height="146.05"/></clipPath><clipPath id="clip-path-3"><rect class="cls-5" x="273.27" y="156.04" width="66.72" height="146.05"/></clipPath><linearGradient id="linear-gradient-30" x1="254.49" y1="227.15" x2="322.86" y2="227.15" gradientUnits="userSpaceOnUse"><stop offset="0.3" stop-color="#ffab00"/><stop offset="0.41" stop-color="#ffbe30"/><stop offset="0.53" stop-color="#ffd05e"/><stop offset="0.64" stop-color="#ffde83"/><stop offset="0.75" stop-color="#ffe89d"/><stop offset="0.85" stop-color="#ffeeac"/><stop offset="0.92" stop-color="#fff0b2"/></linearGradient><clipPath id="clip-path-4"><path class="cls-6" d="M257.88,271.48c-32.89-2-57.5,5.75-76.48,11.95a272.35,272.35,0,0,0-70.59,35.4L372,318.26a222,222,0,0,0-43.14-27.54C295.41,274.56,267.36,272.06,257.88,271.48Z"/></clipPath><linearGradient id="linear-gradient-32" x1="333.02" y1="317.02" x2="318.63" y2="281.3" gradientUnits="userSpaceOnUse"><stop offset="0" stop-color="#00a3bf"/><stop offset="0.11" stop-color="#00a3bf" stop-opacity="0.97"/><stop offset="0.26" stop-color="#00a3bf" stop-opacity="0.88"/><stop offset="0.43" stop-color="#00a3bf" stop-opacity="0.73"/><stop offset="0.62" stop-color="#00a3bf" stop-opacity="0.53"/><stop offset="0.82" stop-color="#00a3bf" stop-opacity="0.27"/><stop offset="1" stop-color="#00a3bf" stop-opacity="0"/></linearGradient><linearGradient id="linear-gradient-33" x1="320.06" y1="272.33" x2="336.64" y2="256.98" gradientTransform="matrix(1.08, -0.09, 0.08, 0.99, -95.57, 8.32)" gradientUnits="userSpaceOnUse"><stop offset="0" stop-color="#0049b0"/><stop offset="0.14" stop-color="#004fc1"/><stop offset="0.45" stop-color="#005be3"/><stop offset="0.72" stop-color="#0062f7"/><stop offset="0.89" stop-color="#0065ff"/></linearGradient><linearGradient id="linear-gradient-34" x1="276.2" y1="223.03" x2="276.2" y2="220.63" gradientUnits="userSpaceOnUse"><stop offset="0.18" stop-color="#d2b494"/><stop offset="0.37" stop-color="#cfb292"/><stop offset="1" stop-color="#978475"/></linearGradient><linearGradient id="linear-gradient-35" x1="275.39" y1="244.71" x2="322.61" y2="197.49" gradientUnits="userSpaceOnUse"><stop offset="0.26" stop-color="#e9eaed"/><stop offset="1" stop-color="#f9f9f8"/></linearGradient><linearGradient id="New_Gradient_Swatch_18" x1="-2758.04" y1="488.38" x2="-2758.04" y2="435.02" gradientTransform="matrix(-1, 0.07, 0.07, 1, -2450.28, 34.04)" gradientUnits="userSpaceOnUse"><stop offset="0" stop-color="#00b8d9"/><stop offset="1" stop-color="#79e2f2"/></linearGradient><linearGradient id="linear-gradient-36" x1="101.59" y1="161.55" x2="339.48" y2="161.55" gradientUnits="userSpaceOnUse"><stop offset="0.33" stop-color="#dee1e4"/><stop offset="1" stop-color="#f9f9f8"/></linearGradient><radialGradient id="radial-gradient" cx="56.68" cy="376.94" r="57.18" gradientTransform="matrix(1, -0.02, 0, 0.25, -1.71, 282.8)" gradientUnits="userSpaceOnUse"><stop offset="0" stop-color="#0049b0"/><stop offset="1" stop-color="#0049b0" stop-opacity="0"/></radialGradient><radialGradient id="radial-gradient-2" cx="373.83" cy="389.71" r="47.88" gradientTransform="matrix(1, 0, 0, 0.25, 0.45, 290.45)" xlink:href="#radial-gradient"/><linearGradient id="linear-gradient-37" x1="109.36" y1="532.36" x2="331.71" y2="310.01" xlink:href="#linear-gradient-36"/><linearGradient id="linear-gradient-38" x1="87.13" y1="371.28" x2="353.99" y2="371.28" gradientUnits="userSpaceOnUse"><stop offset="0" stop-color="#f9f9f8"/><stop offset="0.67" stop-color="#dee1e4"/></linearGradient><clipPath id="clip-path-5"><rect class="cls-7" x="180.9" y="463.61" width="79.28" height="51.38" rx="7.72"/></clipPath><linearGradient id="linear-gradient-39" x1="180.9" y1="491.32" x2="260.18" y2="491.32" xlink:href="#linear-gradient-27"/><linearGradient id="linear-gradient-40" x1="11.34" y1="346.25" x2="100.42" y2="346.25" gradientUnits="userSpaceOnUse"><stop offset="0.33" stop-color="#ff991f"/><stop offset="1" stop-color="#ffc400"/></linearGradient><linearGradient id="linear-gradient-41" x1="21.3" y1="352.09" x2="144.49" y2="360.95" gradientUnits="userSpaceOnUse"><stop offset="0.08" stop-color="#ff8b00" stop-opacity="0"/><stop offset="0.14" stop-color="#ff8b00" stop-opacity="0.02"/><stop offset="0.22" stop-color="#ff8b00" stop-opacity="0.08"/><stop offset="0.3" stop-color="#ff8b00" stop-opacity="0.19"/><stop offset="0.39" stop-color="#ff8b00" stop-opacity="0.33"/><stop offset="0.49" stop-color="#ff8b00" stop-opacity="0.51"/><stop offset="0.59" stop-color="#ff8b00" stop-opacity="0.74"/><stop offset="0.69" stop-color="#ff8b00"/><stop offset="0.7" stop-color="#ff8b00"/></linearGradient><clipPath id="clip-path-6"><ellipse class="cls-8" cx="57.17" cy="307.23" rx="9.33" ry="48.75" transform="translate(-250.2 363.61) rotate(-89.85)"/></clipPath><linearGradient id="linear-gradient-42" x1="98.09" y1="351.6" x2="135.26" y2="351.6" gradientUnits="userSpaceOnUse"><stop offset="0" stop-color="#dee1e4"/><stop offset="1" stop-color="#c1c7d0"/></linearGradient><linearGradient id="linear-gradient-43" x1="116.35" y1="351.6" x2="153.52" y2="351.6" xlink:href="#linear-gradient-42"/><linearGradient id="linear-gradient-44" x1="-18.66" y1="264.79" x2="51.63" y2="183.44" gradientTransform="translate(81 34.04) rotate(4.17)" gradientUnits="userSpaceOnUse"><stop offset="0" stop-color="#008da6"/><stop offset="1" stop-color="#00b8d9"/></linearGradient><linearGradient id="linear-gradient-45" x1="29.53" y1="315.05" x2="29.53" y2="202.77" gradientTransform="matrix(1, 0, 0, 1, 0, 0)" xlink:href="#linear-gradient-44"/><linearGradient id="linear-gradient-46" x1="56.81" y1="296.71" x2="96.13" y2="296.71" gradientUnits="userSpaceOnUse"><stop offset="0" stop-color="#00a3bf"/><stop offset="0.39" stop-color="#00a8c5"/><stop offset="0.92" stop-color="#00b5d6"/><stop offset="1" stop-color="#00b8d9"/></linearGradient><linearGradient id="New_Gradient_Swatch_18-2" x1="-5.89" y1="282.19" x2="-5.89" y2="157.6" gradientTransform="translate(81 34.04) rotate(4.17)" xlink:href="#New_Gradient_Swatch_18"/><linearGradient id="linear-gradient-47" x1="10.07" y1="92.18" x2="54.12" y2="92.18" gradientTransform="matrix(1.09, 0.17, -0.16, 1.02, 145.42, 24.3)" xlink:href="#linear-gradient-22"/><linearGradient id="linear-gradient-48" x1="338.23" y1="289.92" x2="380.31" y2="289.92" gradientUnits="userSpaceOnUse"><stop offset="0" stop-color="#00c7e5"/><stop offset="1" stop-color="#00a3bf"/></linearGradient><linearGradient id="linear-gradient-49" x1="351.56" y1="190.84" x2="357.66" y2="269.23" xlink:href="#linear-gradient-48"/><linearGradient id="linear-gradient-50" x1="345.59" y1="364.48" x2="430.23" y2="399.95" gradientUnits="userSpaceOnUse"><stop offset="0.14" stop-color="#008da6" stop-opacity="0.5"/><stop offset="0.7" stop-color="#008da6" stop-opacity="0"/></linearGradient><clipPath id="clip-path-7"><ellipse class="cls-9" cx="378.1" cy="342.32" rx="33.92" ry="6.49" transform="translate(-0.88 0.97) rotate(-0.15)"/></clipPath><linearGradient id="linear-gradient-51" x1="340.81" y1="227.6" x2="416.88" y2="227.6" xlink:href="#linear-gradient-48"/><linearGradient id="linear-gradient-52" x1="348.42" y1="150.86" x2="409.27" y2="150.86" gradientTransform="matrix(1, 0, 0, 1, 0, 0)" xlink:href="#linear-gradient-24"/><linearGradient id="linear-gradient-53" x1="343.36" y1="274.93" x2="354.01" y2="274.93" gradientUnits="userSpaceOnUse"><stop offset="0" stop-color="#ff991f"/><stop offset="0.29" stop-color="#ffa01a"/><stop offset="0.7" stop-color="#ffb20d"/><stop offset="1" stop-color="#ffc400"/></linearGradient><linearGradient id="linear-gradient-54" x1="378.88" y1="330.8" x2="409.3" y2="330.8" xlink:href="#linear-gradient-46"/><linearGradient id="linear-gradient-55" x1="348.58" y1="315.49" x2="379.21" y2="346.12" gradientUnits="userSpaceOnUse"><stop offset="0" stop-color="#00b8d9"/><stop offset="0.08" stop-color="#00b5d6"/><stop offset="0.61" stop-color="#00a8c5"/><stop offset="1" stop-color="#00a3bf"/></linearGradient><linearGradient id="linear-gradient-56" x1="218.53" y1="149.15" x2="222.54" y2="149.15" gradientUnits="userSpaceOnUse"><stop offset="0" stop-color="#fff" stop-opacity="0.8"/><stop offset="0.07" stop-color="#fff" stop-opacity="0.68"/><stop offset="0.18" stop-color="#fff" stop-opacity="0.5"/><stop offset="0.31" stop-color="#fff" stop-opacity="0.35"/><stop offset="0.43" stop-color="#fff" stop-opacity="0.22"/><stop offset="0.56" stop-color="#fff" stop-opacity="0.12"/><stop offset="0.69" stop-color="#fff" stop-opacity="0.05"/><stop offset="0.83" stop-color="#fff" stop-opacity="0.01"/><stop offset="1" stop-color="#fff" stop-opacity="0"/></linearGradient><linearGradient id="linear-gradient-57" x1="126.96" y1="455.51" x2="149.86" y2="455.51" gradientUnits="userSpaceOnUse"><stop offset="0" stop-color="#dee1e4" stop-opacity="0"/><stop offset="0.06" stop-color="#dcdfe2" stop-opacity="0.08"/><stop offset="0.31" stop-color="#d2d7dc" stop-opacity="0.4"/><stop offset="0.54" stop-color="#cbd0d7" stop-opacity="0.66"/><stop offset="0.74" stop-color="#c6cbd3" stop-opacity="0.84"/><stop offset="0.9" stop-color="#c2c8d1" stop-opacity="0.96"/><stop offset="1" stop-color="#c1c7d0"/></linearGradient><linearGradient id="linear-gradient-58" x1="83.52" y1="459.57" x2="143.84" y2="399.25" gradientUnits="userSpaceOnUse"><stop offset="0" stop-color="#dee1e4" stop-opacity="0"/><stop offset="0.05" stop-color="#d9dce0" stop-opacity="0.19"/><stop offset="0.12" stop-color="#d3d7dc" stop-opacity="0.38"/><stop offset="0.19" stop-color="#ced3d9" stop-opacity="0.55"/><stop offset="0.26" stop-color="#cacfd6" stop-opacity="0.69"/><stop offset="0.34" stop-color="#c7ccd4" stop-opacity="0.8"/><stop offset="0.44" stop-color="#c4cad2" stop-opacity="0.89"/><stop offset="0.55" stop-color="#c2c8d1" stop-opacity="0.95"/><stop offset="0.7" stop-color="#c1c7d0" stop-opacity="0.99"/><stop offset="1" stop-color="#c1c7d0"/></linearGradient><linearGradient id="linear-gradient-59" x1="88.25" y1="459.57" x2="148.57" y2="399.25" gradientUnits="userSpaceOnUse"><stop offset="0" stop-color="#ffc400"/><stop offset="0.3" stop-color="#ffb20d"/><stop offset="0.71" stop-color="#ffa01a"/><stop offset="1" stop-color="#ff991f"/></linearGradient><linearGradient id="linear-gradient-60" x1="116.35" y1="424.38" x2="146.51" y2="454.54" gradientUnits="userSpaceOnUse"><stop offset="0" stop-color="#ffc400"/><stop offset="0.1" stop-color="#ffc000"/><stop offset="0.6" stop-color="#ffb000"/><stop offset="1" stop-color="#ffab00"/></linearGradient><linearGradient id="linear-gradient-61" x1="121.68" y1="437.54" x2="145.03" y2="437.54" gradientUnits="userSpaceOnUse"><stop offset="0" stop-color="#ffab00"/><stop offset="0.21" stop-color="#ffa50a"/><stop offset="0.65" stop-color="#ff9c1a"/><stop offset="1" stop-color="#ff991f"/></linearGradient><linearGradient id="linear-gradient-62" x1="171.34" y1="186.42" x2="183.89" y2="173.87" gradientUnits="userSpaceOnUse"><stop offset="0" stop-color="#ff991f"/><stop offset="0.23" stop-color="#ffa01a"/><stop offset="0.56" stop-color="#ffb40c"/><stop offset="0.77" stop-color="#ffc400"/></linearGradient><linearGradient id="linear-gradient-63" x1="209.09" y1="224.57" x2="221.63" y2="212.03" gradientUnits="userSpaceOnUse"><stop offset="0" stop-color="#ff991f"/><stop offset="0.22" stop-color="#ffa01a"/><stop offset="0.55" stop-color="#ffb40c"/><stop offset="0.76" stop-color="#ffc400"/></linearGradient><clipPath id="clip-path-8"><path class="cls-3" d="M143.69,455.35l.12-.22A2.43,2.43,0,0,1,145.4,454l1-.22a1.27,1.27,0,0,0,.46-.56,1.22,1.22,0,0,0,.07-.72l-.33-.88,1.93-.94,1.35,2.88-3.67,1.57Z"/></clipPath><linearGradient id="linear-gradient-64" x1="144.62" y1="451.62" x2="144.62" y2="427.74" gradientUnits="userSpaceOnUse"><stop offset="0" stop-color="#ffc400"/><stop offset="1" stop-color="#ff991f"/></linearGradient><clipPath id="clip-path-9"><path class="cls-2" d="M141.82,412.53a4.44,4.44,0,0,0,3.18-.62,5.77,5.77,0,0,1,.1-.61c.29-1.39.73-1.81.85-2.47a3,3,0,0,0-1.56-3.05,3.13,3.13,0,0,0-3.33.36,2.84,2.84,0,0,0-.92,1.52v1.28a2.94,2.94,0,0,1-.34.51c-.23.27-.39.37-.36.47s.16.17.79.18c0,.31.08.55.11.79.1.59.08.67.12.79C140.66,412.24,141.48,412.45,141.82,412.53Z"/></clipPath><linearGradient id="linear-gradient-65" x1="143.21" y1="411.43" x2="143.21" y2="404.95" gradientUnits="userSpaceOnUse"><stop offset="0" stop-color="#253858" stop-opacity="0.1"/><stop offset="0.72" stop-color="#253858"/></linearGradient><clipPath id="clip-path-10"><path class="cls-3" d="M135.28,455.44l.13-.23A2.44,2.44,0,0,1,137,454l1.12-.24a.94.94,0,0,0,.73-.79l.16-1.25,2.19-.14.13,3.24Z"/></clipPath><linearGradient id="linear-gradient-66" x1="575.66" y1="1907.23" x2="581.78" y2="1907.23" gradientTransform="translate(-1646.03 -466.51) rotate(-46.81)" gradientUnits="userSpaceOnUse"><stop offset="0" stop-color="#ff991f"/><stop offset="0.29" stop-color="#ffab12"/><stop offset="0.71" stop-color="#ffbd05"/><stop offset="1" stop-color="#ffc400"/></linearGradient><linearGradient id="linear-gradient-67" x1="136.67" y1="440.13" x2="149.32" y2="440.13" gradientUnits="userSpaceOnUse"><stop offset="0.43" stop-color="#ffc400"/><stop offset="1" stop-color="#fff0b2"/></linearGradient><linearGradient id="linear-gradient-68" x1="138.46" y1="420.59" x2="150.21" y2="420.59" gradientUnits="userSpaceOnUse"><stop offset="0" stop-color="#ff8b00"/><stop offset="0.3" stop-color="#ff8e00"/><stop offset="0.54" stop-color="#f90"/><stop offset="0.77" stop-color="#fa0"/><stop offset="0.98" stop-color="#ffc200"/><stop offset="1" stop-color="#ffc400"/></linearGradient><linearGradient id="linear-gradient-69" x1="142.78" y1="416.72" x2="149.56" y2="416.72" gradientTransform="matrix(1, 0, 0, 1, 0, 0)" xlink:href="#linear-gradient-66"/><linearGradient id="linear-gradient-70" x1="138.03" y1="389.86" x2="186.22" y2="389.86" gradientUnits="userSpaceOnUse"><stop offset="0" stop-color="#00b8d9" stop-opacity="0"/><stop offset="0.16" stop-color="#00b8d9" stop-opacity="0.07"/><stop offset="0.48" stop-color="#00b8d9" stop-opacity="0.25"/><stop offset="0.9" stop-color="#00b8d9" stop-opacity="0.53"/><stop offset="1" stop-color="#00b8d9" stop-opacity="0.6"/></linearGradient><linearGradient id="linear-gradient-71" x1="179.2" y1="395.59" x2="269.82" y2="395.59" gradientTransform="translate(2.88 -2.16) rotate(0.05)" xlink:href="#linear-gradient-44"/><linearGradient id="linear-gradient-72" x1="179.2" y1="396.93" x2="269.82" y2="396.93" gradientTransform="translate(2.88 -2.16) rotate(0.05)" xlink:href="#linear-gradient-44"/><linearGradient id="linear-gradient-73" x1="180.99" y1="378.08" x2="269.38" y2="378.08" gradientTransform="translate(2.88 -2.16) rotate(0.05)" gradientUnits="userSpaceOnUse"><stop offset="0" stop-color="#00a3bf"/><stop offset="0.31" stop-color="#00a9c5"/><stop offset="0.72" stop-color="#00b9d6"/><stop offset="1" stop-color="#00c7e5"/></linearGradient><linearGradient id="linear-gradient-74" x1="174.73" y1="393.61" x2="269.82" y2="393.61" xlink:href="#linear-gradient-73"/><linearGradient id="linear-gradient-75" x1="-63.58" y1="-254.69" x2="-18.24" y2="-254.69" gradientTransform="translate(94.02 273.77) rotate(10.49)" gradientUnits="userSpaceOnUse"><stop offset="0" stop-color="#00b8d9"/><stop offset="1" stop-color="#00c7e5"/></linearGradient><linearGradient id="linear-gradient-76" x1="-64.49" y1="-253.95" x2="-18.24" y2="-253.95" xlink:href="#linear-gradient-75"/><linearGradient id="linear-gradient-77" x1="-63.58" y1="-264.09" x2="-18.46" y2="-264.09" gradientTransform="translate(94.02 273.77) rotate(10.49)" gradientUnits="userSpaceOnUse"><stop offset="0" stop-color="#00c7e5"/><stop offset="0.15" stop-color="#06c8e6"/><stop offset="0.35" stop-color="#17cce7"/><stop offset="0.58" stop-color="#33d2ea"/><stop offset="0.82" stop-color="#59dbef"/><stop offset="1" stop-color="#79e2f2"/></linearGradient><linearGradient id="linear-gradient-78" x1="-66.77" y1="-255.45" x2="-18.24" y2="-255.45" xlink:href="#linear-gradient-77"/><linearGradient id="linear-gradient-79" x1="450.34" y1="323.51" x2="495.64" y2="323.51" gradientTransform="translate(-151.3 -172.66) rotate(-11.91)" xlink:href="#linear-gradient-44"/><linearGradient id="linear-gradient-80" x1="450.34" y1="324.24" x2="495.64" y2="324.24" gradientTransform="translate(-151.3 -172.66) rotate(-11.91)" xlink:href="#linear-gradient-44"/><linearGradient id="linear-gradient-81" x1="451.23" y1="313.97" x2="495.42" y2="313.97" gradientTransform="translate(-151.3 -172.66) rotate(-11.91)" gradientUnits="userSpaceOnUse"><stop offset="0" stop-color="#00b8d9"/><stop offset="0.15" stop-color="#06bada"/><stop offset="0.35" stop-color="#17c0de"/><stop offset="0.58" stop-color="#33cae3"/><stop offset="0.82" stop-color="#59d7eb"/><stop offset="1" stop-color="#79e2f2"/></linearGradient><linearGradient id="linear-gradient-82" x1="448.1" y1="322.43" x2="495.64" y2="322.43" xlink:href="#linear-gradient-81"/><radialGradient id="radial-gradient-3" cx="293.3" cy="428.25" r="10.66" gradientTransform="translate(604.54 85.75) rotate(81.59) scale(1 0.84)" gradientUnits="userSpaceOnUse"><stop offset="0.16" stop-color="#00b8d9"/><stop offset="0.36" stop-color="#00b5d6"/><stop offset="0.52" stop-color="#00adcc"/><stop offset="0.64" stop-color="#00a3bf"/></radialGradient><radialGradient id="radial-gradient-4" cx="294.89" cy="428.12" r="13.21" gradientTransform="matrix(0.03, 1, -0.66, 0.02, 569.53, 124.33)" gradientUnits="userSpaceOnUse"><stop offset="0" stop-color="#00c7e5"/><stop offset="0.4" stop-color="#00c4e2"/><stop offset="0.74" stop-color="#00b9da"/><stop offset="0.77" stop-color="#00b8d9"/></radialGradient><linearGradient id="New_Gradient_Swatch_17" x1="280.19" y1="409.25" x2="310.44" y2="409.25" gradientUnits="userSpaceOnUse"><stop offset="0" stop-color="#00a3bf"/><stop offset="1" stop-color="#00c7e5"/></linearGradient><linearGradient id="New_Gradient_Swatch_16" x1="291.49" y1="423.49" x2="291.49" y2="407.58" gradientUnits="userSpaceOnUse"><stop offset="0" stop-color="#ff5630"/><stop offset="1" stop-color="#ff8f73"/></linearGradient><linearGradient id="New_Gradient_Swatch_16-2" x1="299.01" y1="423.61" x2="299.01" y2="407.52" xlink:href="#New_Gradient_Swatch_16"/><clipPath id="clip-path-11"><path class="cls-2" d="M311.2,102.51a4.2,4.2,0,0,0,3-.59c0-.13.05-.33.1-.57a24,24,0,0,1,.8-2.32,2.81,2.81,0,0,0-1.47-2.86,2.93,2.93,0,0,0-3.13.34,2.66,2.66,0,0,0-.86,1.42v1.2a2.79,2.79,0,0,1-.32.48c-.21.26-.36.34-.34.44s.16.16.74.17c0,.29.08.52.11.74.09.55.07.63.11.74C310.11,102.24,310.88,102.43,311.2,102.51Z"/></clipPath><linearGradient id="linear-gradient-83" x1="312.5" y1="101.47" x2="312.5" y2="95.38" xlink:href="#linear-gradient-65"/><clipPath id="clip-path-12"><path class="cls-3" d="M305.06,142.78l.12-.21a2.31,2.31,0,0,1,1.51-1.11l1.05-.22a.88.88,0,0,0,.69-.74l.15-1.18,2.05-.12.13,3Z"/></clipPath><clipPath id="clip-path-13"><path class="cls-3" d="M313.24,142l.12-.21a2.33,2.33,0,0,1,1.52-1.11l1-.21a1.19,1.19,0,0,0,.44-.53,1.21,1.21,0,0,0,.07-.69l-.32-.84,1.85-.9,1.28,2.76-3.5,1.49Z"/></clipPath><linearGradient id="linear-gradient-84" x1="308.58" y1="127.99" x2="319.07" y2="127.99" gradientUnits="userSpaceOnUse"><stop offset="0" stop-color="#0052cc"/><stop offset="1" stop-color="#4c9aff"/></linearGradient><linearGradient id="linear-gradient-85" x1="306.36" y1="128.41" x2="318.24" y2="128.41" gradientUnits="userSpaceOnUse"><stop offset="0" stop-color="#4c9aff"/><stop offset="1" stop-color="#0052cc"/></linearGradient><linearGradient id="linear-gradient-86" x1="312.1" y1="106.43" x2="318.46" y2="106.43" gradientUnits="userSpaceOnUse"><stop offset="0" stop-color="#4c9aff"/><stop offset="1" stop-color="#4c9aff"/></linearGradient><linearGradient id="linear-gradient-87" x1="323.69" y1="205.41" x2="341.09" y2="205.41" gradientUnits="userSpaceOnUse"><stop offset="0" stop-color="#008da6"/><stop offset="0.33" stop-color="#00a0bd"/><stop offset="0.74" stop-color="#00b2d1"/><stop offset="1" stop-color="#00b8d9"/></linearGradient></defs><title>hero-illo</title><g class="cls-10"><g id="Layer_2" data-name="Layer 2"><g id="Layer_1-2" data-name="Layer 1"><path class="cls-11" d="M426.13,218.94H349.71V93h76.42ZM344.67,93H268.25V218.94h76.42Zm-81.46,0H186.79V218.94h76.42ZM426.13,223.84H349.71V349.77h76.42Zm-81.46,0H268.25V349.77h76.42Zm-81.46,0H186.79V349.77h76.42Z"/><path class="cls-12" d="M226.28,141.64h0Z"/><path class="cls-12" d="M231.13,145.44l-.54-.26Z"/><path class="cls-12" d="M229,144.19l-.37-.29Z"/><path class="cls-12" d="M227.09,142.57l-.17-.18Z"/><path class="cls-12" d="M228,143.42a3.45,3.45,0,0,1-.28-.26A3.45,3.45,0,0,0,228,143.42Z"/><path class="cls-12" d="M230,144.86l-.46-.28Z"/><path class="cls-12" d="M232.31,145.92l-.61-.23Z"/><path class="cls-12" d="M236.65,146.66c-.44,0-.87,0-1.3-.07C235.78,146.63,236.21,146.66,236.65,146.66Z"/><path class="cls-12" d="M234.91,146.53c-.27,0-.55-.07-.82-.13C234.36,146.46,234.64,146.49,234.91,146.53Z"/><path class="cls-12" d="M233.57,146.28c-.24-.06-.47-.11-.7-.18C233.1,146.17,233.33,146.22,233.57,146.28Z"/><polygon class="cls-12" points="290.09 142.28 290.09 146.63 325.07 146.65 325.07 142.28 290.09 142.28"/><path class="cls-13" d="M290.09,134.73v-3.29a7.81,7.81,0,0,1,7.4-7.8l-18,0a7.82,7.82,0,0,1,7,7.78v4.09a11.74,11.74,0,0,1,2.58-.69C289.39,134.79,289.73,134.76,290.09,134.73Z"/><rect class="cls-14" x="286.52" y="150.03" width="3.57" height="44.79"/><rect class="cls-14" x="286.52" y="142.28" width="3.57" height="4.35"/><path class="cls-15" d="M240.36,149.94a7.82,7.82,0,0,1,7.77,7.82V202h3.57V157.76a7.81,7.81,0,0,1,7.1-7.78Z"/><path class="cls-16" d="M306.14,157.86v44.25h3.56V157.86a7.81,7.81,0,0,1,7.08-7.78l-18.38,0A7.81,7.81,0,0,1,306.14,157.86Z"/><path class="cls-17" d="M364.15,169.31v32.8h3.57V157.86a7.8,7.8,0,0,1,7.81-7.81h-8.35v19.26Z"/><path class="cls-18" d="M363.61,155v-5H363l.09,3.82A7.34,7.34,0,0,1,363.61,155Z"/><rect class="cls-19" x="325.07" y="142.28" width="3.57" height="4.37"/><rect class="cls-19" x="325.07" y="150.1" width="3.57" height="44.72"/><path class="cls-19" d="M328.63,141.64v-10.2a7.82,7.82,0,0,1,7.82-7.82h-19.2a7.82,7.82,0,0,1,7.82,7.82v8.29c.22.16.46.33.72.49A15.37,15.37,0,0,0,328.63,141.64Z"/><path class="cls-20" d="M363.61,155v14.28h.54V157.86A7.83,7.83,0,0,0,363.61,155Z"/><path class="cls-21" d="M367.18,131.44a7.82,7.82,0,0,1,7.81-7.82H355.8a7.81,7.81,0,0,1,7.81,7.82v18.61h3.57Z"/><path class="cls-22" d="M364.15,157.86v11.45h3V150.05h-3.57v5A7.83,7.83,0,0,1,364.15,157.86Z"/><path class="cls-23" d="M364.15,157.86v11.45h3V150.05h-3.57v5A7.83,7.83,0,0,1,364.15,157.86Z"/><path class="cls-24" d="M402.16,131.4v63.38h3.57V131.4a7.8,7.8,0,0,1,7.81-7.81H394.35A7.81,7.81,0,0,1,402.16,131.4Z"/><path class="cls-25" d="M344.67,150.13v-3.47h-19.6l-35,0H268.77c.28,0,.55,0,.82,0h-1.34V150l18.27,0h3.57l8.31,0,18.38,0,8.29,0h3.56Z"/><path class="cls-25" d="M358.68,152.87a14.06,14.06,0,0,1,4.47,5.58l-.11-4.58-.09-3.82-.08-3.38H349.71v3.48h1.41A14.14,14.14,0,0,1,358.68,152.87Z"/><path class="cls-25" d="M263.21,150v-3.33H236.65c-.44,0-.87,0-1.3-.07-.15,0-.29,0-.44-.06s-.55-.07-.82-.13-.35-.08-.52-.12-.47-.11-.7-.18l-.56-.18-.61-.23-.57-.25-.54-.26-.58-.32-.46-.28c-.2-.12-.39-.26-.59-.39l-.37-.29a7,7,0,0,1-.6-.48,3.45,3.45,0,0,1-.28-.26l-.62-.59-.17-.18c-.22-.25-.44-.49-.64-.75h0a13.23,13.23,0,0,1-2.75-6.49h0v3.19a11.6,11.6,0,0,0,11.59,11.6h5.25l18.44,0Z"/><path class="cls-26" d="M257.12,110.41c-3.55-2.26-3.63-4.36-7.56-6.79a16.94,16.94,0,0,0-11-2.78,16.4,16.4,0,0,0-10.07,5.45,14.44,14.44,0,0,0-8.11-1.26c-4.12.63-6,2.92-12.6,5.91-1.38.63-2.64,1.13-3.7,1.53h57.82A16.15,16.15,0,0,1,257.12,110.41Z"/><path class="cls-26" d="M325.07,142.28h5.54a16.23,16.23,0,0,1-2-.64,15.37,15.37,0,0,1-2.84-1.42c-.26-.16-.5-.33-.72-.49-2.86-2.08-3.2-4-6.84-6.3a16.93,16.93,0,0,0-11-2.78,16.4,16.4,0,0,0-10.08,5.45,15,15,0,0,0-7.11-1.37c-.36,0-.7.06-1,.11a11.74,11.74,0,0,0-2.58.69c-2.66,1-4.95,2.92-10,5.22-1.38.63-2.64,1.13-3.7,1.53h52.28Z"/><polygon class="cls-27" points="344.67 123.59 344.67 120.17 269.59 120.19 268.25 120.19 268.25 123.68 279.52 123.66 297.49 123.64 344.67 123.59"/><path class="cls-27" d="M226.28,141.64c.2.26.42.5.64.75l.17.18.62.59a3.45,3.45,0,0,0,.28.26,7,7,0,0,0,.6.48l.37.29c.2.13.39.27.59.39l.46.28.58.32.54.26.57.25.61.23.56.18c.23.07.46.12.7.18s.34.09.52.12.55.09.82.13.29.05.44.06c.43,0,.86.07,1.3.07h26.56V145a13.27,13.27,0,0,1-6.88-11.63,13.09,13.09,0,0,1,.65-4.07,13.77,13.77,0,0,1,6.23-4.73v-4.41l-26.56,0a13.25,13.25,0,0,0-13.26,13.25,12.79,12.79,0,0,0,.13,1.76,13.23,13.23,0,0,0,2.75,6.49Z"/><polygon class="cls-27" points="426.13 120.14 349.71 120.17 349.71 123.58 426.13 123.49 426.13 120.14"/><path class="cls-27" d="M268.77,146.61c-.17,0-.34,0-.52,0v.07h1.34C269.32,146.66,269.05,146.63,268.77,146.61Z"/><path class="cls-28" d="M396,158.64a12,12,0,0,1-12,12H351.12a12,12,0,0,0,12-12v-.25a12,12,0,0,0-12-11.73h32.94a12,12,0,0,1,12,11.73Z"/><path class="cls-29" d="M62.49,217.14c-1.54-.28-.53-6.49.07-37.52.32-16.53.26-26.44,5.79-38.26a61.46,61.46,0,0,1,6.78-11.18l6,5.46a36.23,36.23,0,0,1-2.32-15.4c.26-3.39,1.37-11,14.34-27.78a184.61,184.61,0,0,1,21.21-23.1L123.25,71a11.6,11.6,0,0,1-1.18-7.58c1.26-5.43,7.41-8.7,24.13-14.23,7.69-2.55,17.74-5.61,29.73-8.57-10.56,7.74-15.35,15.6-17.74,21.67s-3.29,12.53-8.48,15c-3.5,1.66-7.46.76-10.35-.32q2.63,3.94,5.24,7.88a81.74,81.74,0,0,0-19.2,20.81c-5.32,8.4-8.45,16.94-18,22.7a31.69,31.69,0,0,1-8.07,3.47l5.83,4.08a179.06,179.06,0,0,0-13.94,18.51C69.39,187.77,65.86,217.75,62.49,217.14Z"/><path class="cls-30" d="M66,278.91c-1.27-.06-1.16-5.15-4.18-30.09-1.62-13.29-2.79-21.23.31-31.33a49.34,49.34,0,0,1,4.17-9.73l5.46,3.69a29.06,29.06,0,0,1-3.61-12.08c-.18-2.75-.14-8.94,8.36-23.9a149.61,149.61,0,0,1,14.38-20.91l7.28.3a9.44,9.44,0,0,1-1.8-5.94c.4-4.5,5-7.82,17.74-14.14,5.88-2.91,13.58-6.5,22.86-10.24-7.59,7.4-10.54,14.25-11.77,19.38s-1.22,10.42-5.1,13c-2.62,1.72-5.9,1.45-8.33.91l5.09,5.72a66.22,66.22,0,0,0-13,18.86C100.5,189.73,99,196.93,92,202.62a25.94,25.94,0,0,1-6.08,3.7l5.13,2.61A146.23,146.23,0,0,0,82,225.35C68.21,254.58,68.78,279,66,278.91Z"/><path class="cls-31" d="M59.37,192.12c-2.61-6.34-4.61-11.73-6-15.72-4.83-13.68-5.31-18-4.66-22.22a26.88,26.88,0,0,1,3.46-9.56c-8.25-4.81-11.6-10.08-13.15-13.94-3.06-7.59-3-19.44-3-25.85,0-3.93,1.46-20.4,6.06-23.7,1.47,2.74,3.51,6.73,5.73,11.64,5.5,12.15,14.89,33.41,16.83,62.89A168.34,168.34,0,0,1,56.1,220.2h0"/><path class="cls-32" d="M150,59.14A205.79,205.79,0,0,1,170.8,44.77c1.54-1.38,3.24-2.77,5.13-4.16h0l-3.62.91a208.3,208.3,0,0,0-23.6,16c-56.82,44.69-78.66,110.23-87,157.91.11,1.14.34,1.6.73,1.67s.77-.28,1.19-1C71.86,168.81,93.49,103.55,150,59.14Z"/><path class="cls-33" d="M52.36,205c1.32.63,4-4.59,20.48-28.22,8.81-12.6,14.28-20,16.6-31.92a57.36,57.36,0,0,0,1-12.1l-7.53.79a33.52,33.52,0,0,0,10.18-10.3c6-9.67,5.14-20.1,4.43-28.72a77.72,77.72,0,0,0-3.42-16.88,85.23,85.23,0,0,0-3.54-9.35c-2.28-.52-4.65-1.26-4.65-2.17,0-1.13,3.66-1.26,4.59-2.7,1.62-2.49-4-10.3-24.87-28.43A141.39,141.39,0,0,1,65,51.11c-.3,3.08-1,6.23.93,8.67s5.08,2.77,5,3.37c-.06.37-1.37.66-7.12.23.31,1.82.7,4.28,1.07,7.22.61,4.77,1.09,10.13,1.27,16.18.46,16.14-2,19.56,1,26.88a29.64,29.64,0,0,0,4.17,7l-6.61-.12a165.11,165.11,0,0,1,.33,21.53C63.25,179.14,49.49,203.59,52.36,205Z"/><path class="cls-34" d="M68.29,37.29,65.65,35c0,.66,0,1.29,0,1.92C85.06,67.77,82,102.13,80.31,120.71a189.52,189.52,0,0,1-28.32,83c-.05.71,0,1.17.37,1.32s1.11-.3,2.49-2.13a191.4,191.4,0,0,0,27.47-82C84,102.36,87,68.35,68.29,37.29Z"/><path class="cls-35" d="M73.65,184.1c5.73-4.48,10.38-8.4,13.75-11.34,11.57-10.06,14.16-13.7,15.66-17.89a25.8,25.8,0,0,0,1.4-10.37,46.77,46.77,0,0,0,19.83-6.23,42.81,42.81,0,0,0,13-11.89l-3.57-7.87c1.64,1.1,5.32,3.19,9.28,2.37,3.31-.69,5.29-3.09,8.43-6.9a40.42,40.42,0,0,0,4.34-6.45l-9.75-15.74c-2.8,1.77-6.8,4.39-11.42,7.77-11.45,8.34-31.26,23.06-47.9,48.88a164.06,164.06,0,0,0-23.94,62.75h0"/><path class="cls-36" d="M108.8,141.91H332.51a21.6,21.6,0,0,1,21.6,21.6V332.36a0,0,0,0,1,0,0H87.2a0,0,0,0,1,0,0V163.51A21.6,21.6,0,0,1,108.8,141.91Z"/><rect class="cls-1" x="139.82" y="118.12" width="161.43" height="237.89" transform="translate(457.6 16.52) rotate(90)"/><g class="cls-37"><g class="cls-38"><rect class="cls-4" x="270.23" y="156.04" width="66.72" height="146.05"/><g class="cls-39"><path class="cls-40" d="M270.25,226.87a7,7,0,1,1-7-7A7,7,0,0,1,270.25,226.87Zm49.57-12.75H251.45v26.06h68.37Z"/></g></g><rect class="cls-5" x="273.27" y="156.04" width="66.72" height="146.05"/><g class="cls-41"><path class="cls-42" d="M273.29,226.87a7,7,0,1,1-7-7A7,7,0,0,1,273.29,226.87Zm49.57-12.75H254.49v26.06h68.37Z"/></g><path class="cls-9" d="M159.39,279.58c-36.67,0-70.34,14.49-96.73,38.68H256.11C229.72,294.07,196.05,279.58,159.39,279.58Z"/><path class="cls-3" d="M279.32,252.31c.07.31.18.78.26,1.37.15,1,.25,1.76,0,1.91s-1-.51-1.41-1a3.48,3.48,0,0,1-.52-1.06c0-.6.05-1.2.07-1.79a.91.91,0,0,1,.9-.42A.94.94,0,0,1,279.32,252.31Z"/><path class="cls-3" d="M276.52,252.31a11.75,11.75,0,0,0-.27,1.37c-.15,1-.25,1.76,0,1.91s1-.51,1.42-1a3.66,3.66,0,0,0,.51-1.06c0-.6,0-1.2-.07-1.79a.9.9,0,0,0-.9-.42A.92.92,0,0,0,276.52,252.31Z"/><path class="cls-6" d="M257.88,271.48c-32.89-2-57.5,5.75-76.48,11.95a272.35,272.35,0,0,0-70.59,35.4L372,318.26a222,222,0,0,0-43.14-27.54C295.41,274.56,267.36,272.06,257.88,271.48Z"/><g class="cls-43"><path class="cls-44" d="M319.35,307.18c1.95,1.83,3.49,1.78,3.91,3.33.49,1.83-1.44,2.69-1.49,4.78-.1,4.28,7.87,7.5,8.75,7.84,4,1.58,9,2.14,9.62.78s-3.51-2.62-3.83-6c-.36-3.89,4.61-6.17,3.64-9-.55-1.58-2.17-1.05-3.57-2.91-2.68-3.55.78-8.8-1.44-10.53-1.38-1.07-3.06.7-4.75-.4-2.12-1.38-.39-4.76-2.51-8.32-1.66-2.8-5.29-5-7.53-4-1.81.81-2.44,3.63-2.44,5.4,0,3.25,2.13,4.25,1.54,6.61-.53,2.08-2.31,1.84-3,4C315.27,301.47,317.18,305.14,319.35,307.18Z"/></g><path class="cls-26" d="M153.27,181.41a4.75,4.75,0,1,1,4.76-4.75A4.75,4.75,0,0,1,153.27,181.41Zm0-7.49a2.74,2.74,0,1,0,2.74,2.74A2.74,2.74,0,0,0,153.27,173.92Z"/><path class="cls-26" d="M189.38,215.92H136.82V163.36h52.56Zm-50.55-2h48.54V165.37H138.83Z"/><path class="cls-45" d="M273.76,231.53c-.21.91-.41,1.82-.61,2.74a11.48,11.48,0,0,0-.08,2.48,10.84,10.84,0,0,0,.17,1.38L276.35,252h3.3c.38-3,.53-5.37.59-7,.05-1.17,0-1.57.12-2.59.27-3.15.73-3.38.82-5.59a9.53,9.53,0,0,0-.88-5.14,8.12,8.12,0,0,0-1-1.48Z"/><path class="cls-46" d="M277.59,252h2.06c.38-3,.53-5.37.59-7,.05-1.17,0-1.57.12-2.59.27-3.15.73-3.38.82-5.59a10.57,10.57,0,0,0-.46-4.16l-4.67.38Z"/><path class="cls-3" d="M273.28,219a3.6,3.6,0,0,0,.13,1.68,3,3,0,0,0-.86,1,2.89,2.89,0,0,0-.33,2c.19.79.65.86.62,1.41s-.57.69-.88,1.48a2.55,2.55,0,0,0-.14,1.43c.53,2.06,8.67,2.45,9.31.68a2,2,0,0,0-.26-1.72c-.24-.28-.47-.31-.53-.57-.1-.41.39-.67.72-1.25a2.85,2.85,0,0,0,0-2.69,2.79,2.79,0,0,0-1.78-1.25,4.22,4.22,0,0,0,0-2.4,3.54,3.54,0,0,0-2.06-2.38,3.08,3.08,0,0,0-2.11.06A3.37,3.37,0,0,0,273.28,219Z"/><path class="cls-47" d="M274.8,222a2.39,2.39,0,0,1,1.26-.29,3.44,3.44,0,0,1,1.49.36l.13.75-2.44,1.15-.82-1Z"/><path class="cls-48" d="M275,222.22a1.4,1.4,0,0,0,.19-.53,2.07,2.07,0,0,0,0-1,3,3,0,0,0,1,0c.39,0,.78,0,1.17,0v.76a2,2,0,0,0,.07.69.69.69,0,0,0,.47.48,7.54,7.54,0,0,0-.74.29,3.4,3.4,0,0,1-.72.14,2.89,2.89,0,0,1-.72,0c-.19,0-.37-.08-.56-.11a1.94,1.94,0,0,1-.42-.07c-.14-.06-.33-.18-.16-.3A1.15,1.15,0,0,0,275,222.22Z"/><path class="cls-49" d="M279.25,222.93c.1.53-1.4,1.52-2.92,1.55s-3.15-1-3.05-1.5,1.08-.49,2-.57C276.59,222.28,279.12,222.28,279.25,222.93Z"/><path class="cls-47" d="M266.8,233.57a11,11,0,0,0,4-2,7.78,7.78,0,0,0,2.44-2.87,13.77,13.77,0,0,0,.54-1.61c.72-2.33.63-2.86.41-3.22a1.28,1.28,0,0,0-.85-.61,1.25,1.25,0,0,0-.88.35c-.88.76-.54,2-1.22,4.1-.14.43-.27.76-.35.95L266.43,232Z"/><path class="cls-45" d="M277.55,222a1.11,1.11,0,0,1-.06.83,1.34,1.34,0,0,1-.54.45,2.05,2.05,0,0,0-.81,1c-.21-.69-.51-.95-.76-1a1.25,1.25,0,0,1-.5-.26,1.13,1.13,0,0,1-.08-1,7.78,7.78,0,0,0-1.21.68,5,5,0,0,0-1.31,1.19l-.15.21a.48.48,0,0,1,.24.12c.11.11.17.28.08,1,0,.34-.25.68.43,1.63a5.5,5.5,0,0,1,.67,5.36l6.47-.21a5.87,5.87,0,0,1-.72-3.85,5.4,5.4,0,0,1,.68-1.81,8.25,8.25,0,0,0,.37-1.74,8.86,8.86,0,0,0,0-1,2.86,2.86,0,0,0-1.06-.85c-.27-.12-.46-.14-1-.34C278,222.23,277.73,222.11,277.55,222Z"/><path class="cls-49" d="M278.38,218.67a3.79,3.79,0,0,1-.05,1.4,2.51,2.51,0,0,1-.22.82,1.64,1.64,0,0,1-.62.75c-.67.36-1.72-.22-2.28-.88a2.38,2.38,0,0,1-.61-2,1.91,1.91,0,0,1,3.78-.09Z"/><path class="cls-3" d="M273,222.42c.07.32.47.46.57.49a1.78,1.78,0,0,0,1.92-.71,1.7,1.7,0,0,0,.21-1.76.5.5,0,0,1-.15-.3c0-.24.31-.42.54-.55,1.33-.76,1.65-.89,1.88-1.27a1,1,0,0,0,.18-.71c-.12-.52-.83-.74-1-.78a2.66,2.66,0,0,0-2.43.7,3.25,3.25,0,0,0-.82,2.86,2.63,2.63,0,0,0,.25.74C273.29,221.47,272.85,222,273,222.42Z"/><rect class="cls-26" x="136.58" y="221.01" width="121.03" height="2.01"/><rect class="cls-26" x="136.58" y="227.1" width="121.03" height="2.01"/><rect class="cls-26" x="136.58" y="233.19" width="121.03" height="2.01"/><rect class="cls-26" x="136.58" y="239.28" width="121.03" height="2.01"/><rect class="cls-26" x="136.58" y="245.37" width="98.36" height="2.01"/><path class="cls-50" d="M283.62,220.83a7,7,0,1,1-7-7A7,7,0,0,1,283.62,220.83Zm49.57-12.76H264.82v26.06h68.37Z"/><path class="cls-51" d="M325.79,295.79c-.35,2.55-1.7,2.28-2.4,5.1-1.39,5.63,2.93,11.13,4.78,13.49,2.58,3.28,5.07,6.46,8.13,6.11,3.64-.41,6.65-5.65,6.66-10,0-3.44-1.91-4.55-1.16-7.5.82-3.27,4-3.56,4.07-6,0-2.32-2.68-2.5-3.68-5.68-1.16-3.65,1.74-5.52.38-8.53-1.17-2.61-3.67-1.93-4.84-4.57-1.33-3,1.32-5.1-.06-7.89a6.16,6.16,0,0,0-5.53-3c-3.57.1-6.43,3.58-6.72,6.58s2.41,4.88,1.41,7.22c-.88,2.07-3.3,1.4-4.22,3.29C321.16,287.39,326.5,290.59,325.79,295.79Z"/><path class="cls-25" d="M342.59,308l-6.3,11.28-1-13.33,7.47-13.37a5.89,5.89,0,0,1-.44-.87l-7.14,12.78-1.14-15.7,5-9a4,4,0,0,1-.62-.55l-4.5,8.05-.67-9.2,4.38-7.84h0a4.29,4.29,0,0,0-.49-.76l-4,7.15-.68-9.39-.36,0-.45,0,.68,9.34-5.75-6c-.15.23-.29.48-.42.72l6.27,6.54.68,9.4-6.23-6.5a2,2,0,0,1-.09.26,2.27,2.27,0,0,1-.29.51l6.7,7,1.16,15.9-8.59-9c0,.09,0,.17,0,.26a6,6,0,0,1-.15.74l8.86,9.23,1,13.53-11.62-12.12a18.52,18.52,0,0,0,.93,2.13l10.74,11.19a4,4,0,0,0,.77,0l.3-.06,6.26-11.22A9.16,9.16,0,0,0,342.59,308Z"/><rect class="cls-52" x="266.83" y="253.36" width="72.71" height="3.06"/></g><rect class="cls-53" x="101.59" y="156.34" width="237.89" height="10.42"/><ellipse class="cls-54" cx="56.81" cy="382.99" rx="56.81" ry="11.16"/><polyline class="cls-55" points="121.61 261.96 147.59 271.76 183.51 230.14 219.62 245.95 272.6 159.12"/><circle class="cls-45" cx="147.59" cy="271.31" r="5.59"/><circle class="cls-45" cx="183.49" cy="230.17" r="5.59"/><circle class="cls-45" cx="219.75" cy="246.04" r="5.59"/><circle class="cls-45" cx="273.27" cy="157.37" r="5.59"/><circle class="cls-56" cx="147.59" cy="271.31" r="2.61"/><circle class="cls-57" cx="183.49" cy="230.17" r="2.61"/><circle class="cls-25" cx="273.27" cy="157.37" r="2.61"/><circle class="cls-25" cx="219.75" cy="246.04" r="2.61"/><ellipse class="cls-58" cx="373.58" cy="395.24" rx="47.23" ry="9.28"/><path class="cls-59" d="M78.9,347.61H345.81a0,0,0,0,1,0,0V516.46a21.6,21.6,0,0,1-21.6,21.6H100.5a21.6,21.6,0,0,1-21.6-21.6V347.61A0,0,0,0,1,78.9,347.61Z"/><path class="cls-60" d="M87.08,337H354a0,0,0,0,1,0,0V505.89a21.6,21.6,0,0,1-21.6,21.6H108.68a21.6,21.6,0,0,1-21.6-21.6V337A0,0,0,0,1,87.08,337Z"/><path class="cls-61" d="M87.08,332.29H354a0,0,0,0,1,0,0V501.14a21.6,21.6,0,0,1-21.6,21.6H108.68a21.6,21.6,0,0,1-21.6-21.6V332.29A0,0,0,0,1,87.08,332.29Z"/><rect class="cls-60" x="123.95" y="367.59" width="20.18" height="17.01"/><rect class="cls-60" x="123.95" y="404.51" width="20.18" height="17.01"/><rect class="cls-60" x="145.57" y="367.59" width="20.18" height="17.01"/><rect class="cls-60" x="123.95" y="386.05" width="20.18" height="17.01"/><rect class="cls-60" x="210.45" y="367.59" width="20.18" height="17.01"/><rect class="cls-60" x="167.2" y="367.59" width="20.17" height="17.01"/><rect class="cls-60" x="188.82" y="367.59" width="20.18" height="17.01"/><rect class="cls-60" x="296.95" y="422.97" width="20.18" height="17.01"/><rect class="cls-60" x="232.08" y="422.97" width="20.17" height="17.01"/><rect class="cls-60" x="232.08" y="367.59" width="20.17" height="17.01"/><rect class="cls-60" x="123.95" y="422.97" width="20.18" height="17.01"/><rect class="cls-60" x="275.33" y="422.97" width="20.17" height="17.01"/><rect class="cls-60" x="253.7" y="422.97" width="20.17" height="17.01"/><rect class="cls-60" x="145.57" y="422.97" width="20.18" height="17.01"/><rect class="cls-60" x="188.82" y="422.97" width="20.18" height="17.01"/><rect class="cls-60" x="167.2" y="422.97" width="20.17" height="17.01"/><rect class="cls-60" x="210.45" y="422.97" width="20.18" height="17.01"/><rect class="cls-60" x="145.57" y="386.05" width="20.18" height="17.01"/><rect class="cls-60" x="167.2" y="404.51" width="20.17" height="17.01"/><rect class="cls-60" x="188.82" y="386.05" width="20.18" height="17.01"/><rect class="cls-60" x="145.57" y="404.51" width="20.18" height="17.01"/><rect class="cls-60" x="167.2" y="386.05" width="20.17" height="17.01"/><rect class="cls-60" x="253.7" y="386.05" width="20.17" height="17.01"/><rect class="cls-60" x="253.7" y="367.59" width="20.17" height="17.01"/><rect class="cls-60" x="210.45" y="386.05" width="20.18" height="17.01"/><rect class="cls-60" x="232.08" y="386.05" width="20.17" height="17.01"/><rect class="cls-60" x="275.33" y="386.05" width="20.17" height="17.01"/><rect class="cls-60" x="275.33" y="367.59" width="20.17" height="17.01"/><rect class="cls-60" x="275.33" y="404.51" width="20.17" height="17.01"/><rect class="cls-60" x="188.82" y="404.51" width="20.18" height="17.01"/><rect class="cls-60" x="210.45" y="404.51" width="20.18" height="17.01"/><rect class="cls-60" x="232.08" y="404.51" width="20.17" height="17.01"/><rect class="cls-60" x="253.7" y="441.43" width="20.17" height="17.01"/><rect class="cls-60" x="188.82" y="441.43" width="20.18" height="17.01"/><rect class="cls-60" x="275.33" y="441.43" width="20.17" height="17.01"/><rect class="cls-60" x="167.2" y="441.43" width="20.17" height="17.01"/><rect class="cls-60" x="232.08" y="441.43" width="20.17" height="17.01"/><rect class="cls-60" x="210.45" y="441.43" width="20.18" height="17.01"/><rect class="cls-60" x="145.57" y="441.43" width="20.18" height="17.01"/><rect class="cls-60" x="102.32" y="441.43" width="20.17" height="17.01"/><rect class="cls-60" x="123.95" y="441.43" width="20.18" height="17.01"/><rect class="cls-60" x="318.58" y="441.43" width="20.17" height="17.01"/><rect class="cls-60" x="318.58" y="367.59" width="20.17" height="17.01"/><rect class="cls-60" x="318.58" y="349.13" width="20.17" height="17.01"/><rect class="cls-60" x="318.58" y="386.05" width="20.17" height="17.01"/><rect class="cls-60" x="102.32" y="422.97" width="20.17" height="17.01"/><rect class="cls-60" x="296.95" y="441.43" width="20.18" height="17.01"/><rect class="cls-60" x="318.58" y="404.51" width="20.17" height="17.01"/><rect class="cls-60" x="318.58" y="422.97" width="20.17" height="17.01"/><rect class="cls-60" x="275.33" y="349.13" width="20.17" height="17.01"/><rect class="cls-60" x="253.7" y="349.13" width="20.17" height="17.01"/><rect class="cls-60" x="296.95" y="404.51" width="20.18" height="17.01"/><rect class="cls-60" x="232.08" y="349.13" width="20.17" height="17.01"/><rect class="cls-60" x="296.95" y="349.13" width="20.18" height="17.01"/><rect class="cls-60" x="296.95" y="386.05" width="20.18" height="17.01"/><rect class="cls-60" x="296.95" y="367.59" width="20.18" height="17.01"/><rect class="cls-60" x="210.45" y="349.13" width="20.18" height="17.01"/><rect class="cls-60" x="102.32" y="367.59" width="20.17" height="17.01"/><rect class="cls-60" x="102.32" y="404.51" width="20.17" height="17.01"/><rect class="cls-60" x="102.32" y="386.05" width="20.17" height="17.01"/><rect class="cls-60" x="102.32" y="349.13" width="20.17" height="17.01"/><rect class="cls-60" x="123.95" y="349.13" width="20.18" height="17.01"/><rect class="cls-60" x="167.2" y="349.13" width="20.17" height="17.01"/><rect class="cls-60" x="188.82" y="349.13" width="20.18" height="17.01"/><rect class="cls-60" x="145.57" y="349.13" width="20.18" height="17.01"/><rect class="cls-62" x="123.95" y="365.98" width="20.18" height="17.01"/><rect class="cls-62" x="123.95" y="402.9" width="20.18" height="17.01"/><rect class="cls-62" x="145.57" y="365.98" width="20.18" height="17.01"/><rect class="cls-62" x="123.95" y="384.44" width="20.18" height="17.01"/><rect class="cls-62" x="210.45" y="365.98" width="20.18" height="17.01"/><rect class="cls-62" x="167.2" y="365.98" width="20.17" height="17.01"/><rect class="cls-62" x="188.82" y="365.98" width="20.18" height="17.01"/><rect class="cls-62" x="296.95" y="421.36" width="20.18" height="17.01"/><rect class="cls-62" x="232.08" y="421.36" width="20.17" height="17.01"/><rect class="cls-62" x="232.08" y="365.98" width="20.17" height="17.01"/><rect class="cls-62" x="123.95" y="421.36" width="20.18" height="17.01"/><rect class="cls-62" x="275.33" y="421.36" width="20.17" height="17.01"/><rect class="cls-62" x="145.57" y="421.36" width="20.18" height="17.01"/><rect class="cls-62" x="188.82" y="421.36" width="20.18" height="17.01"/><rect class="cls-62" x="167.2" y="421.36" width="20.17" height="17.01"/><rect class="cls-62" x="210.45" y="421.36" width="20.18" height="17.01"/><rect class="cls-62" x="145.57" y="384.44" width="20.18" height="17.01"/><rect class="cls-62" x="167.2" y="402.9" width="20.17" height="17.01"/><rect class="cls-62" x="188.82" y="384.44" width="20.18" height="17.01"/><rect class="cls-62" x="145.57" y="402.9" width="20.18" height="17.01"/><rect class="cls-62" x="167.2" y="384.44" width="20.17" height="17.01"/><rect class="cls-62" x="253.7" y="384.44" width="20.17" height="17.01"/><rect class="cls-62" x="253.7" y="365.98" width="20.17" height="17.01"/><rect class="cls-62" x="210.45" y="384.44" width="20.18" height="17.01"/><rect class="cls-62" x="232.08" y="384.44" width="20.17" height="17.01"/><rect class="cls-62" x="275.33" y="384.44" width="20.17" height="17.01"/><rect class="cls-62" x="275.33" y="365.98" width="20.17" height="17.01"/><rect class="cls-62" x="275.33" y="402.9" width="20.17" height="17.01"/><rect class="cls-62" x="188.82" y="402.9" width="20.18" height="17.01"/><rect class="cls-62" x="210.45" y="402.9" width="20.18" height="17.01"/><rect class="cls-60" x="253.7" y="404.51" width="20.17" height="17.01"/><rect class="cls-62" x="253.7" y="402.9" width="20.17" height="17.01"/><rect class="cls-62" x="232.08" y="402.9" width="20.17" height="17.01"/><rect class="cls-62" x="253.7" y="439.82" width="20.17" height="17.01"/><rect class="cls-62" x="188.82" y="439.82" width="20.18" height="17.01"/><rect class="cls-62" x="275.33" y="439.82" width="20.17" height="17.01"/><rect class="cls-62" x="167.2" y="439.82" width="20.17" height="17.01"/><rect class="cls-62" x="232.08" y="439.82" width="20.17" height="17.01"/><rect class="cls-62" x="210.45" y="439.82" width="20.18" height="17.01"/><rect class="cls-62" x="145.57" y="439.82" width="20.18" height="17.01"/><rect class="cls-62" x="102.32" y="439.82" width="20.17" height="17.01"/><rect class="cls-62" x="123.95" y="439.82" width="20.18" height="17.01"/><rect class="cls-62" x="318.58" y="439.82" width="20.17" height="17.01"/><rect class="cls-62" x="318.58" y="365.98" width="20.17" height="17.01"/><rect class="cls-62" x="318.58" y="347.52" width="20.17" height="17.01"/><rect class="cls-62" x="318.58" y="384.44" width="20.17" height="17.01"/><rect class="cls-62" x="102.32" y="421.36" width="20.17" height="17.01"/><rect class="cls-62" x="296.95" y="439.82" width="20.18" height="17.01"/><rect class="cls-62" x="318.58" y="402.9" width="20.17" height="17.01"/><rect class="cls-62" x="318.58" y="421.36" width="20.17" height="17.01"/><rect class="cls-62" x="275.33" y="347.52" width="20.17" height="17.01"/><rect class="cls-62" x="253.7" y="347.52" width="20.17" height="17.01"/><rect class="cls-62" x="296.95" y="402.9" width="20.18" height="17.01"/><rect class="cls-62" x="232.08" y="347.52" width="20.17" height="17.01"/><rect class="cls-62" x="296.95" y="347.52" width="20.18" height="17.01"/><rect class="cls-62" x="296.95" y="384.44" width="20.18" height="17.01"/><rect class="cls-62" x="296.95" y="365.98" width="20.18" height="17.01"/><rect class="cls-62" x="210.45" y="347.52" width="20.18" height="17.01"/><rect class="cls-62" x="102.32" y="365.98" width="20.17" height="17.01"/><rect class="cls-62" x="102.32" y="402.9" width="20.17" height="17.01"/><rect class="cls-62" x="102.32" y="384.44" width="20.17" height="17.01"/><rect class="cls-62" x="102.32" y="347.52" width="20.17" height="17.01"/><rect class="cls-62" x="123.95" y="347.52" width="20.18" height="17.01"/><rect class="cls-62" x="167.2" y="347.52" width="20.17" height="17.01"/><rect class="cls-62" x="188.82" y="347.52" width="20.18" height="17.01"/><rect class="cls-62" x="145.57" y="347.52" width="20.18" height="17.01"/><rect class="cls-62" x="253.7" y="421.36" width="20.17" height="17.01"/><path class="cls-63" d="M354,332.29c-53.68,3.14-86.83,12.63-107,20.56-37.91,14.89-47.3,31-93.12,44.88-25.95,7.85-50.66,11.06-66.72,12.54v-78Z"/><rect class="cls-7" x="180.9" y="463.61" width="79.28" height="51.38" rx="7.72"/><g class="cls-64"><rect class="cls-65" x="180.9" y="465.63" width="79.28" height="51.38" rx="7.72"/></g><circle class="cls-66" cx="220.54" cy="149.15" r="3.73"/><rect class="cls-67" x="101.59" y="166.77" width="24.7" height="151.01"/><path class="cls-68" d="M100.42,312.25H11.34l13.36,60c0,4.4,14,8,31.2,8s31.2-3.57,31.2-8c0,0,0-.08,0-.12Z"/><path class="cls-69" d="M24.7,372.27c0,4.4,14,8,31.2,8s31.2-3.57,31.2-8c0,0,0-.08,0-.12v0A30.21,30.21,0,0,0,78.24,355c-6.78-6.55-11.4-4.16-21.34-11.33-3.63-2.63-10-7.32-13-14.05-12.32-.59-22.8-2.05-29.59-4Z"/><path class="cls-8" d="M97.36,326l3.06-13.72H11.34l3,13.37c6.79,2,17.27,3.43,29.59,4,4.14.2,8.49.3,13,.29C73.42,329.88,88.09,328.33,97.36,326Z"/><ellipse class="cls-56" cx="56.86" cy="316.18" rx="9.72" ry="50.81" transform="translate(-259.47 372.23) rotate(-89.85)"/><ellipse class="cls-56" cx="56.86" cy="316" rx="9.72" ry="50.81" transform="translate(-259.29 372.05) rotate(-89.85)"/><ellipse class="cls-56" cx="56.86" cy="315.82" rx="9.72" ry="50.81" transform="translate(-259.11 371.87) rotate(-89.85)"/><ellipse class="cls-56" cx="56.86" cy="315.64" rx="9.72" ry="50.81" transform="translate(-258.92 371.69) rotate(-89.85)"/><ellipse class="cls-56" cx="56.86" cy="315.46" rx="9.72" ry="50.81" transform="translate(-258.74 371.51) rotate(-89.85)"/><ellipse class="cls-56" cx="56.86" cy="315.28" rx="9.72" ry="50.81" transform="translate(-258.56 371.33) rotate(-89.85)"/><ellipse class="cls-56" cx="56.86" cy="315.09" rx="9.72" ry="50.81" transform="translate(-258.38 371.15) rotate(-89.85)"/><ellipse class="cls-56" cx="56.86" cy="314.91" rx="9.72" ry="50.81" transform="translate(-258.2 370.97) rotate(-89.85)"/><ellipse class="cls-56" cx="56.86" cy="314.73" rx="9.72" ry="50.81" transform="translate(-258.02 370.78) rotate(-89.85)"/><ellipse class="cls-56" cx="56.86" cy="314.55" rx="9.72" ry="50.81" transform="translate(-257.83 370.6) rotate(-89.85)"/><ellipse class="cls-56" cx="56.86" cy="314.37" rx="9.72" ry="50.81" transform="translate(-257.65 370.42) rotate(-89.85)"/><ellipse class="cls-56" cx="56.86" cy="314.19" rx="9.72" ry="50.81" transform="translate(-257.47 370.24) rotate(-89.85)"/><ellipse class="cls-56" cx="56.86" cy="314.01" rx="9.72" ry="50.81" transform="translate(-257.29 370.06) rotate(-89.85)"/><ellipse class="cls-56" cx="56.86" cy="313.82" rx="9.72" ry="50.81" transform="translate(-257.11 369.88) rotate(-89.85)"/><ellipse class="cls-56" cx="56.86" cy="313.64" rx="9.72" ry="50.81" transform="translate(-256.93 369.7) rotate(-89.85)"/><ellipse class="cls-56" cx="56.86" cy="313.46" rx="9.72" ry="50.81" transform="translate(-256.74 369.52) rotate(-89.85)"/><ellipse class="cls-56" cx="56.86" cy="313.28" rx="9.72" ry="50.81" transform="translate(-256.56 369.33) rotate(-89.85)"/><ellipse class="cls-56" cx="56.86" cy="313.1" rx="9.72" ry="50.81" transform="translate(-256.38 369.15) rotate(-89.85)"/><ellipse class="cls-56" cx="56.86" cy="312.92" rx="9.72" ry="50.81" transform="translate(-256.2 368.97) rotate(-89.85)"/><ellipse class="cls-56" cx="56.86" cy="312.73" rx="9.72" ry="50.81" transform="translate(-256.02 368.79) rotate(-89.85)"/><ellipse class="cls-56" cx="56.86" cy="312.55" rx="9.72" ry="50.81" transform="translate(-255.84 368.61) rotate(-89.85)"/><ellipse class="cls-56" cx="56.86" cy="312.37" rx="9.72" ry="50.81" transform="translate(-255.65 368.43) rotate(-89.85)"/><ellipse class="cls-56" cx="56.86" cy="312.19" rx="9.72" ry="50.81" transform="translate(-255.47 368.25) rotate(-89.85)"/><ellipse class="cls-56" cx="56.86" cy="312.01" rx="9.72" ry="50.81" transform="translate(-255.29 368.07) rotate(-89.85)"/><ellipse class="cls-56" cx="56.86" cy="311.83" rx="9.72" ry="50.81" transform="translate(-255.11 367.89) rotate(-89.85)"/><ellipse class="cls-56" cx="56.86" cy="311.64" rx="9.72" ry="50.81" transform="translate(-254.93 367.7) rotate(-89.85)"/><ellipse class="cls-56" cx="56.86" cy="311.46" rx="9.72" ry="50.81" transform="translate(-254.75 367.52) rotate(-89.85)"/><ellipse class="cls-56" cx="56.86" cy="311.28" rx="9.72" ry="50.81" transform="translate(-254.56 367.34) rotate(-89.85)"/><ellipse class="cls-56" cx="56.86" cy="311.1" rx="9.72" ry="50.81" transform="translate(-254.38 367.16) rotate(-89.85)"/><ellipse class="cls-56" cx="56.86" cy="310.92" rx="9.72" ry="50.81" transform="translate(-254.2 366.98) rotate(-89.85)"/><ellipse class="cls-56" cx="56.86" cy="310.74" rx="9.72" ry="50.81" transform="translate(-254.02 366.8) rotate(-89.85)"/><ellipse class="cls-56" cx="56.86" cy="310.55" rx="9.72" ry="50.81" transform="translate(-253.84 366.62) rotate(-89.85)"/><ellipse class="cls-56" cx="56.86" cy="310.37" rx="9.72" ry="50.81" transform="translate(-253.66 366.44) rotate(-89.85)"/><ellipse class="cls-56" cx="56.86" cy="310.19" rx="9.72" ry="50.81" transform="translate(-253.47 366.26) rotate(-89.85)"/><ellipse class="cls-56" cx="56.86" cy="310.01" rx="9.72" ry="50.81" transform="translate(-253.29 366.07) rotate(-89.85)"/><ellipse class="cls-56" cx="56.86" cy="309.83" rx="9.72" ry="50.81" transform="translate(-253.11 365.89) rotate(-89.85)"/><ellipse class="cls-56" cx="56.86" cy="309.65" rx="9.72" ry="50.81" transform="translate(-252.93 365.71) rotate(-89.85)"/><ellipse class="cls-56" cx="56.86" cy="309.46" rx="9.72" ry="50.81" transform="translate(-252.75 365.53) rotate(-89.85)"/><ellipse class="cls-56" cx="56.86" cy="309.28" rx="9.72" ry="50.81" transform="translate(-252.57 365.35) rotate(-89.85)"/><ellipse class="cls-56" cx="56.86" cy="309.1" rx="9.72" ry="50.81" transform="translate(-252.39 365.17) rotate(-89.85)"/><ellipse class="cls-56" cx="56.86" cy="308.92" rx="9.72" ry="50.81" transform="translate(-252.2 364.99) rotate(-89.85)"/><ellipse class="cls-56" cx="56.86" cy="308.74" rx="9.72" ry="50.81" transform="translate(-252.02 364.81) rotate(-89.85)"/><ellipse class="cls-56" cx="56.86" cy="308.56" rx="9.72" ry="50.81" transform="translate(-251.84 364.62) rotate(-89.85)"/><ellipse class="cls-56" cx="56.86" cy="308.37" rx="9.72" ry="50.81" transform="translate(-251.66 364.44) rotate(-89.85)"/><ellipse class="cls-56" cx="56.86" cy="308.19" rx="9.72" ry="50.81" transform="translate(-251.48 364.26) rotate(-89.85)"/><ellipse class="cls-56" cx="56.86" cy="308.01" rx="9.72" ry="50.81" transform="translate(-251.3 364.08) rotate(-89.85)"/><ellipse class="cls-56" cx="56.86" cy="307.83" rx="9.72" ry="50.81" transform="translate(-251.11 363.9) rotate(-89.85)"/><ellipse class="cls-56" cx="56.86" cy="307.65" rx="9.72" ry="50.81" transform="translate(-250.93 363.72) rotate(-89.85)"/><ellipse class="cls-56" cx="56.86" cy="307.47" rx="9.72" ry="50.81" transform="translate(-250.75 363.54) rotate(-89.85)"/><ellipse class="cls-56" cx="56.86" cy="307.28" rx="9.72" ry="50.81" transform="translate(-250.57 363.36) rotate(-89.85)"/><ellipse class="cls-56" cx="56.86" cy="307.1" rx="9.72" ry="50.81" transform="translate(-250.39 363.18) rotate(-89.85)"/><path class="cls-56" d="M107.66,307.07s0-.07,0-.1c0-5.37-22.77-9.66-50.83-9.59S6,301.86,6.05,307.23c0,0,0,.06,0,.09s0,.06,0,.1,0,.05,0,.08,0,.07,0,.1,0,.06,0,.08,0,.07,0,.1,0,.06,0,.09,0,.06,0,.09,0,.06,0,.09,0,.06,0,.09,0,.06,0,.09,0,.06,0,.09,0,.06,0,.09,0,.06,0,.1,0,.05,0,.08,0,.07,0,.1,0,.05,0,.08,0,.07,0,.1,0,.06,0,.09,0,.06,0,.09,0,.06,0,.09,0,.06,0,.09,0,.06,0,.09,0,.06,0,.09,0,.06,0,.09,0,.06,0,.09,0,.06,0,.09,0,.07,0,.1,0,.05,0,.08,0,.07,0,.1,0,.06,0,.09,0,.06,0,.09,0,.06,0,.09,0,.06,0,.09,0,.06,0,.09,0,.06,0,.09,0,.06,0,.09,0,.06,0,.09,0,.06,0,.09,0,.06,0,.1,0,.05,0,.08,0,.07,0,.1,0,.06,0,.09,0,.06,0,.09,0,.06,0,.09,0,.06,0,.09,0,.06,0,.09,0,.06,0,.09,0,.06,0,.09,0,.06,0,.09,0,.06,0,.09,0,.06,0,.1,0,.05,0,.08,0,.07,0,.1,0,.06,0,.08,0,.07,0,.1,0,.06,0,.09,0,.06,0,.09,0,.06,0,.09,0,.06,0,.09,0,.06,0,.09,0,.06,0,.09,0,.06,0,.09,0,.06,0,.1,0,.05,0,.08,0,.07,0,.1,0,.06,0,.08,0,.07,0,.1,0,.06,0,.09,0,.06,0,.09,0,.06,0,.09,0,.06,0,.09,0,.06,0,.09,0,.06,0,.09,0,.06,0,.09,0,.06,0,.1,0,.05,0,.08,0,.07,0,.1,0,.06,0,.08,0,.07,0,.1,0,.06,0,.09,0,.06,0,.09,0,.06,0,.09,0,.06,0,.09,0,.06,0,.09,0,.06,0,.09,0,.06,0,.09,0,.06,0,.1,0,0,0,.08,0,.07,0,.1,0,.06,0,.08,0,.07,0,.1,0,.06,0,.09,0,.06,0,.09,0,.06,0,.09,0,.06,0,.09,0,.06,0,.09,0,.06,0,.09,0,.06,0,.09,0,.06,0,.1c0,5.36,22.78,9.66,50.84,9.59s50.79-4.49,50.78-9.86c0,0,0-.05,0-.08s0-.07,0-.1,0-.06,0-.08,0-.07,0-.1,0-.06,0-.09,0-.06,0-.09,0-.06,0-.09,0-.06,0-.09,0-.06,0-.09,0-.06,0-.09,0-.06,0-.09,0-.06,0-.1,0,0,0-.08,0-.07,0-.1,0-.06,0-.08,0-.07,0-.1,0-.06,0-.09,0-.06,0-.09,0-.06,0-.09,0-.06,0-.09,0-.06,0-.09,0-.06,0-.09,0-.06,0-.09,0-.06,0-.1,0-.05,0-.08,0-.07,0-.1,0-.06,0-.08,0-.07,0-.1,0-.06,0-.09,0-.06,0-.09,0-.06,0-.09,0-.06,0-.09,0-.06,0-.09,0-.06,0-.09,0-.06,0-.09,0-.06,0-.1,0,0,0-.08,0-.07,0-.1,0-.05,0-.08,0-.07,0-.1,0-.06,0-.09,0-.06,0-.09,0-.06,0-.09,0-.06,0-.09,0-.06,0-.09,0-.06,0-.09,0-.06,0-.09,0-.06,0-.09,0-.06,0-.09,0-.06,0-.1,0-.05,0-.08,0-.07,0-.1,0-.06,0-.09,0-.06,0-.09,0-.06,0-.09,0-.06,0-.09,0-.06,0-.09,0-.06,0-.09,0-.06,0-.09,0-.06,0-.09,0-.06,0-.09,0-.06,0-.1,0-.05,0-.08,0-.07,0-.1,0-.06,0-.09,0-.06,0-.09,0-.06,0-.09,0-.06,0-.09,0-.06,0-.09,0-.06,0-.09,0-.06,0-.09,0-.06,0-.09,0-.06,0-.09,0-.06,0-.1,0-.05,0-.08,0-.07,0-.1,0-.06,0-.08,0-.07,0-.1,0-.06,0-.09,0-.06,0-.09,0-.06,0-.09,0-.06,0-.09,0-.06,0-.09,0-.06,0-.09,0-.06,0-.09,0-.06,0-.1,0-.05,0-.08,0-.07,0-.1,0-.06,0-.08,0-.07,0-.1,0-.06,0-.09,0-.06,0-.09,0-.06,0-.09,0-.06,0-.09,0-.06,0-.09,0-.06,0-.09,0-.06,0-.09,0-.06,0-.1S107.66,307.1,107.66,307.07Z"/><ellipse class="cls-8" cx="57.17" cy="307.23" rx="9.33" ry="48.75" transform="translate(-250.2 363.61) rotate(-89.85)"/><g class="cls-70"><ellipse class="cls-3" cx="57.17" cy="315.39" rx="9.33" ry="48.75" transform="translate(-258.37 371.76) rotate(-89.85)"/></g><path class="cls-71" d="M134.75,366.23a.54.54,0,0,1-.31-.1L98.28,337.87a.49.49,0,0,1-.08-.7.49.49,0,0,1,.7-.09l36.16,28.25a.51.51,0,0,1,.09.71A.5.5,0,0,1,134.75,366.23Z"/><path class="cls-72" d="M153,366.23a.5.5,0,0,1-.31-.1l-36.16-28.26a.5.5,0,0,1-.09-.7.51.51,0,0,1,.71-.09l36.16,28.25a.51.51,0,0,1,.09.71A.5.5,0,0,1,153,366.23Z"/><path class="cls-73" d="M153.46,365.59l-1.52-7h0a.57.57,0,0,0-.05-.24L125.54,237.51a.65.65,0,0,0-.75-.48.65.65,0,0,0-.4.28.6.6,0,0,0-.08.47l1.78,8.18H109.28l-1.84-8.45a.6.6,0,0,0-.27-.39.68.68,0,0,0-.48-.09.64.64,0,0,0-.48.75l27.93,128.08a.63.63,0,0,0,.61.5l.14,0a.63.63,0,0,0,.48-.75L134,359.24h16.81l1.45,6.62a.62.62,0,0,0,.61.5l.13,0a.6.6,0,0,0,.4-.27A.62.62,0,0,0,153.46,365.59ZM132.2,274H115.39l-5.83-26.74h16.81Zm6.1,28H121.5l-5.84-26.75h16.81Zm6.11,28H127.6l-5.83-26.75h16.81Zm6.11,28H133.71l-5.83-26.75h16.8Z"/><path class="cls-74" d="M104.7,262.49c-4.59,5-8.5,5.14-9.28,9.14-.92,4.72,4.13,6.56,4.64,11.83,1,10.83-18.56,20.44-20.71,21.47-9.86,4.71-22.48,7.06-24.21,3.73-1.63-3.13,8.39-7.27,8.58-15.88.21-9.9-12.79-14.78-10.84-22.1,1.09-4.09,5.28-3.05,8.48-8,6.14-9.48-3.57-22.16,1.73-26.92,3.29-3,7.87,1.21,12-1.89,5.13-3.88.11-12.12,4.84-21.54,3.69-7.37,12.46-13.71,18.32-11.59,4.75,1.71,6.85,8.73,7.17,13.21.59,8.25-4.62,11.17-2.68,17,1.71,5.16,6.18,4.23,8.41,9.47C114,247.29,109.81,256.94,104.7,262.49Z"/><path class="cls-75" d="M7,264.14c4.22,5.32,8.11,5.75,8.6,9.79.57,4.78-4.6,6.24-5.5,11.46-1.83,10.73,17,21.74,19.1,22.92,9.49,5.42,21.91,8.68,23.88,5.48,1.84-3-7.84-7.86-7.4-16.46.5-9.88,13.82-13.81,12.41-21.25-.78-4.16-5-3.43-7.88-8.59-5.42-9.91,5.18-21.85.24-27-3.07-3.2-7.94.63-11.78-2.75-4.83-4.25.77-12.1-3.26-21.84C32.26,208.3,24,201.34,18,203c-4.86,1.37-7.47,8.21-8.11,12.66-1.19,8.19,3.8,11.47,1.43,17.19-2.08,5-6.47,3.77-9.07,8.83C-1.16,248.31,2.31,258.23,7,264.14Z"/><path class="cls-76" d="M83.72,304.13c-2.65.61-4-.23-5.15.92-1.37,1.36-.11,3.11-1.14,5-2.11,3.83-10.79,2.57-11.74,2.42-4.34-.67-9-2.75-8.87-4.25s4.43-.51,6.44-3.32c2.32-3.23-.89-7.8,1.42-9.78,1.28-1.12,2.44.18,4.62-.74,4.19-1.75,3.84-8.16,6.68-8.53,1.76-.24,2.33,2.18,4.39,2.08,2.58-.13,2.78-4,6.49-6.05,2.89-1.61,7.24-1.72,8.7.31,1.19,1.64.3,4.45-.61,6-1.68,2.87-4.07,2.65-4.75,5-.61,2.1,1.09,2.81.64,5C90.25,301.19,86.68,303.44,83.72,304.13Z"/><path class="cls-77" d="M78.39,257.32c.81,6,4,5.32,5.6,11.9,3.25,13.16-6.83,26-11.16,31.5-6,7.67-11.84,15.08-19,14.27-8.5-1-15.52-13.18-15.54-23.25,0-8.05,4.45-10.62,2.71-17.52-1.92-7.63-9.43-8.3-9.5-14.09-.07-5.43,6.25-5.85,8.59-13.27,2.69-8.53-4.07-12.89-.9-19.93,2.74-6.09,8.57-4.49,11.31-10.66,3.12-7-3.08-11.9.14-18.42,2.3-4.64,8.08-7.17,12.91-7,8.33.22,15,8.35,15.69,15.36.72,7.3-5.64,11.4-3.3,16.87,2.06,4.82,7.71,3.26,9.85,7.67C89.2,237.7,76.74,245.19,78.39,257.32Z"/><path class="cls-25" d="M63.09,212.51l1.58-21.61c-.37,0-.73-.09-1.11-.1s-.6,0-.9,0l-1.59,21.74L51.84,196a10.16,10.16,0,0,0-1.19,1.84.69.69,0,0,1,0,.1l10.2,18.25-1.55,21.24-10.4-18.62a9.81,9.81,0,0,1-1.55,1.36L59,241.09l-2.66,36.42-16.58-29.7A13,13,0,0,1,38.66,250l17.41,31.17L53.82,312,39.18,285.83a20.94,20.94,0,0,0-.66,2.94l14.57,26.11.75.11a8.8,8.8,0,0,0,1.92,0L80.66,289a41.29,41.29,0,0,0,2.29-5.3L55.84,312l2.28-31.38,20.64-21.51a14,14,0,0,1-.37-1.79c0-.22,0-.44-.06-.67l-20,20.83,2.7-36.93,15.62-16.28A5.69,5.69,0,0,1,76,223a6.81,6.81,0,0,1-.23-.68L61.28,237.41l1.58-21.75,14.61-15.23a20.65,20.65,0,0,0-1.06-1.8Z"/><circle class="cls-78" cx="107.78" cy="161.66" r="1.7"/><circle class="cls-79" cx="113.37" cy="161.66" r="1.7"/><circle class="cls-25" cx="118.97" cy="161.66" r="1.7"/><path class="cls-80" d="M157.6,91.18a31.61,31.61,0,0,1,15,6.48c10.52,7.94,13,19.74,14.24,25.27,3.35,15.57-1.52,28.39-4.24,34.2,2-7.57.95-12.68-1.46-16.21s-5.42-4.21-8.29-7.94c-3.46-4.49-4.17-10.14-3.5-15.9a41.23,41.23,0,0,1-7.57-4.09,41.66,41.66,0,0,1-15.66-21.2A30.39,30.39,0,0,1,157.6,91.18Z"/><path class="cls-81" d="M363.81,297.48a13.49,13.49,0,0,1-13.41-12.1,10.59,10.59,0,1,0-3,0,16.51,16.51,0,0,0,16.43,15.1A13.5,13.5,0,0,1,377.29,314a1.51,1.51,0,0,0,3,0A16.52,16.52,0,0,0,363.81,297.48Zm-22.56-22.55a7.57,7.57,0,1,1,7.57,7.56A7.58,7.58,0,0,1,341.25,274.93Z"/><path class="cls-82" d="M333.9,219.45a21.71,21.71,0,0,0,21.69,21.69,24.75,24.75,0,0,1,24.72,24.71,1.51,1.51,0,0,1-3,0,21.72,21.72,0,0,0-21.7-21.69,24.74,24.74,0,0,1-24.71-24.71Z"/><path class="cls-25" d="M412,342.45H344.17l10.18,45.71c0,3.36,10.64,6.08,23.76,6.08s23.76-2.72,23.76-6.08v-.08Z"/><path class="cls-83" d="M387.15,386.7c-9.53-1.44-15.94-10.22-19.22-14.77-7.38-10.22-4.92-15-11.66-21.94a32.48,32.48,0,0,0-11.44-7.54h-.66l10.18,45.71c0,3.36,10.64,6.08,23.76,6.08s23.76-2.72,23.76-6.08v-.08l.9-4.05C400,383.25,394.94,387.88,387.15,386.7Z"/><ellipse class="cls-9" cx="378.1" cy="342.32" rx="33.92" ry="6.49" transform="translate(-0.88 0.97) rotate(-0.15)"/><g class="cls-84"><ellipse class="cls-3" cx="378.1" cy="348" rx="33.92" ry="6.49" transform="translate(-0.89 0.97) rotate(-0.15)"/></g><path class="cls-85" d="M416.88,150.86a38,38,0,1,0-39.54,38v152a1.51,1.51,0,1,0,3,0v-152A38.07,38.07,0,0,0,416.88,150.86Zm-38,35a35,35,0,1,1,35-35A35.06,35.06,0,0,1,378.85,185.87Z"/><path class="cls-25" d="M374.91,282.85c4.08,4.14,3.78,11,3.78,11s-6.92.21-11-3.93-3.77-11.06-3.77-11.06S370.83,278.71,374.91,282.85Z"/><path class="cls-86" d="M363.92,278.91a13.2,13.2,0,0,0,0,1.51l13.26,13.43a14.42,14.42,0,0,0,1.47,0s0-.57,0-1.47L365.36,279C364.48,278.9,363.92,278.91,363.92,278.91Z"/><circle class="cls-87" cx="378.84" cy="150.86" r="30.42"/><circle class="cls-88" cx="348.68" cy="274.93" r="5.33"/><path class="cls-25" d="M382.47,231.6c-4.08,4.14-3.77,11.05-3.77,11.05s6.91.2,11-3.94,3.78-11.05,3.78-11.05S386.55,227.46,382.47,231.6Z"/><path class="cls-86" d="M393.47,227.66s-.56,0-1.44.06l-13.3,13.45a13.85,13.85,0,0,0,0,1.48s.57,0,1.47-.06l13.26-13.42C393.49,228.25,393.47,227.66,393.47,227.66Z"/><path class="cls-25" d="M360.42,232.34c3.23,4.83,1.64,11.56,1.64,11.56S355.22,242.8,352,238s-1.64-11.56-1.64-11.56S357.19,227.51,360.42,232.34Z"/><path class="cls-86" d="M351.76,226.73c-.85-.23-1.41-.32-1.41-.32s-.13.57-.24,1.48l10.52,15.68a14.06,14.06,0,0,0,1.43.33s.13-.56.24-1.46Z"/><path class="cls-25" d="M339.37,243c4.74-3.37,11.51-2,11.51-2s-.89,6.87-5.62,10.24-11.51,2-11.51,2S334.64,246.37,339.37,243Z"/><path class="cls-86" d="M350.88,241s-.56-.11-1.46-.19l-15.39,11a14.1,14.1,0,0,0-.28,1.41,14.31,14.31,0,0,0,1.49.2l15.36-11A14.17,14.17,0,0,0,350.88,241Z"/><path class="cls-89" d="M401.53,338.13c8.39-8.52,7.76-22.75,7.76-22.75s-14.23-.42-22.63,8.1-7.77,22.75-7.77,22.75S393.13,346.65,401.53,338.13Z"/><path class="cls-25" d="M409.29,315.38s-.52,0-1.42,0l-29,29.33c0,.95,0,1.5,0,1.5s.5,0,1.37,0l29-29.39C409.32,315.91,409.29,315.38,409.29,315.38Z"/><path class="cls-90" d="M356.46,338.13c-8.39-8.52-7.77-22.75-7.77-22.75s14.24-.42,22.64,8.1,7.76,22.75,7.76,22.75S364.85,346.65,356.46,338.13Z"/><path class="cls-25" d="M348.69,315.38s0,.53,0,1.44l29,29.39c.86,0,1.36,0,1.36,0s0-.55,0-1.5l-29-29.33C349.22,315.36,348.69,315.38,348.69,315.38Z"/><path class="cls-73" d="M379,289.19a.67.67,0,0,0-.4-.28.61.61,0,0,0-.47.09.6.6,0,0,0-.27.39L376,297.84H359.22l1.79-8.18a.65.65,0,0,0-.48-.75.69.69,0,0,0-.47.08.67.67,0,0,0-.28.4L333.43,410.23a.76.76,0,0,0-.06.26h0l-1.52,7a.67.67,0,0,0,.09.48.6.6,0,0,0,.39.27l.14,0a.63.63,0,0,0,.61-.5l1.44-6.62h16.81L350,417.47a.62.62,0,0,0,.08.48.6.6,0,0,0,.39.27l.14,0a.62.62,0,0,0,.61-.5L379.1,289.66A.6.6,0,0,0,379,289.19ZM340.9,381.86l5.84-26.75h16.81l-5.84,26.75Zm6.11-28,5.83-26.75h16.81l-5.83,26.75Zm6.11-28L359,299.09h16.81l-5.83,26.75Zm-12.49,57.27h16.81l-5.83,26.75H334.8Z"/><path class="cls-26" d="M167.31,189.51,158,198.8l-4.62-4.63L142,205.53h41.28Zm-20.41,14,6.5-6.5,3.2,3.2L153.82,203l-.52.53Zm12.55-3.3,7.86-7.86,11.15,11.16H156.15l3.3-3.3Z"/><circle class="cls-47" cx="113.84" cy="181.14" r="4.95"/><circle class="cls-47" cx="113.84" cy="195.47" r="4.95"/><circle class="cls-91" cx="220.54" cy="149.15" r="2"/><rect class="cls-4" x="287.94" y="215.95" width="38.66" height="2.01"/><rect class="cls-4" x="287.94" y="221.4" width="38.66" height="2.01"/><ellipse class="cls-92" cx="138.41" cy="455.51" rx="11.45" ry="1.97"/><polygon class="cls-93" points="56.9 432.95 116.94 479.37 140.29 395.7 56.9 432.95"/><rect class="cls-4" x="287.94" y="226.85" width="25.74" height="2.01"/><polygon class="cls-94" points="61.63 432.95 121.68 479.37 145.03 395.7 61.63 432.95"/><polygon class="cls-95" points="114.27 457.35 114.89 456.56 76.04 426.52 74.99 426.98 114.27 457.35"/><polygon class="cls-95" points="118.39 452.02 81.97 423.87 80.93 424.33 117.78 452.82 118.39 452.02"/><polygon class="cls-95" points="87.91 421.21 86.87 421.68 121.28 448.29 121.9 447.49 87.91 421.21"/><polygon class="cls-95" points="124.79 443.75 125.4 442.96 93.85 418.56 92.81 419.03 124.79 443.75"/><polygon class="cls-95" points="128.29 439.22 128.91 438.43 99.79 415.91 98.74 416.38 128.29 439.22"/><polygon class="cls-95" points="131.8 434.69 132.41 433.89 105.72 413.26 104.68 413.72 131.8 434.69"/><polygon class="cls-96" points="87.84 453.21 145.03 395.7 121.68 479.37 87.84 453.21"/><polygon class="cls-95" points="114.27 457.35 114.89 456.56 97.72 443.28 97 444 114.27 457.35"/><polygon class="cls-95" points="118.39 452.02 101.79 439.19 101.08 439.91 117.78 452.82 118.39 452.02"/><polygon class="cls-95" points="105.86 435.09 105.15 435.81 121.28 448.29 121.9 447.49 105.86 435.09"/><polygon class="cls-95" points="124.79 443.75 125.4 442.96 109.93 431 109.22 431.72 124.79 443.75"/><polygon class="cls-95" points="128.29 439.22 128.91 438.43 114 426.9 113.29 427.62 128.29 439.22"/><polygon class="cls-95" points="131.8 434.69 132.41 433.89 118.08 422.81 117.36 423.53 131.8 434.69"/><polygon class="cls-97" points="145.03 395.7 112.81 432.48 79.78 424.84 145.03 395.7"/><polygon class="cls-56" points="145.03 395.7 110.75 430.07 79.78 424.84 145.03 395.7"/><polyline class="cls-98" points="145.03 395.7 126.25 420.05 121.68 479.37 145.03 395.7"/><path class="cls-7" d="M213.89,210.77,205,214.32a2.11,2.11,0,0,0-1.17,2.75l3.56,8.87a2.11,2.11,0,0,0,2.75,1.18l2.19-.88,2.57,1.65a.8.8,0,0,0,1.2-.48l.72-3,2.19-.88a2.12,2.12,0,0,0,1.17-2.75l-3.56-8.87A2.11,2.11,0,0,0,213.89,210.77Z"/><path class="cls-7" d="M176.25,172.61l-8.87,3.56a2.11,2.11,0,0,0-1.17,2.75l3.56,8.87a2.1,2.1,0,0,0,2.74,1.17l2.19-.88,2.58,1.65a.79.79,0,0,0,1.19-.48l.72-3,2.19-.88a2.11,2.11,0,0,0,1.18-2.75L179,173.79A2.12,2.12,0,0,0,176.25,172.61Z"/><path class="cls-99" d="M182.4,173.25h-9.56a2.11,2.11,0,0,0-2.11,2.12v9.55a2.11,2.11,0,0,0,2.11,2.12h2.36l1.77,2.49a.8.8,0,0,0,1.29,0L180,187h2.37a2.12,2.12,0,0,0,2.11-2.12v-9.55A2.12,2.12,0,0,0,182.4,173.25Z"/><path class="cls-100" d="M220.14,211.41h-9.56a2.1,2.1,0,0,0-2.11,2.11v9.56a2.11,2.11,0,0,0,2.11,2.11h2.36l1.77,2.49a.8.8,0,0,0,1.29,0l1.78-2.49h2.36a2.12,2.12,0,0,0,2.11-2.11v-9.56A2.11,2.11,0,0,0,220.14,211.41Z"/><path class="cls-3" d="M143.69,455.35l.12-.22A2.43,2.43,0,0,1,145.4,454l1-.22a1.27,1.27,0,0,0,.46-.56,1.22,1.22,0,0,0,.07-.72l-.33-.88,1.93-.94,1.35,2.88-3.67,1.57Z"/><g class="cls-101"><rect class="cls-102" x="143.51" y="453.63" width="2.08" height="2.08"/><polygon class="cls-102" points="143.84 455.09 146.24 454.84 149.81 453.28 149.93 453.54 146.26 455.11 143.69 455.35 143.84 455.09"/><circle class="cls-102" cx="148.11" cy="452.17" r="0.37"/></g><path class="cls-103" d="M139.14,427.9a41.78,41.78,0,0,0-.07,4.67c0,1,.12,1.92.21,2.81h0a24.63,24.63,0,0,0,2.54,8.63l4.9,7.61,3.49-.66c-1-2.51-2-5.14-3.31-7.86q-1.2-2.55-2.42-4.86l1-10.5Z"/><path class="cls-104" d="M127.53,419.4a1.29,1.29,0,0,1-.79-.29c-.11-.08-.33-.24-.3-.41s.1-.14.21-.22a3.57,3.57,0,0,0,.52-.51c.12-.1.46-.29,1.41,0A1.37,1.37,0,0,1,127.53,419.4Z"/><path class="cls-2" d="M142,411.25l3.1.05a3.19,3.19,0,0,0-.07.69,3.05,3.05,0,0,0,.08.66.16.16,0,0,0,.14.13l.88.16a2.71,2.71,0,0,1-.59,1,3,3,0,0,1-1.07.68,3.55,3.55,0,0,1-1.93.36,3.21,3.21,0,0,1-2.09-1.36,3,3,0,0,0,.55-.23c.39-.21.9-.48,1-1a3.25,3.25,0,0,0,0-.85A2.07,2.07,0,0,0,142,411.25Z"/><path class="cls-2" d="M141.82,412.53a4.44,4.44,0,0,0,3.18-.62,5.77,5.77,0,0,1,.1-.61c.29-1.39.73-1.81.85-2.47a3,3,0,0,0-1.56-3.05,3.13,3.13,0,0,0-3.33.36,2.84,2.84,0,0,0-.92,1.52v1.28a2.94,2.94,0,0,1-.34.51c-.23.27-.39.37-.36.47s.16.17.79.18c0,.31.08.55.11.79.1.59.08.67.12.79C140.66,412.24,141.48,412.45,141.82,412.53Z"/><g class="cls-105"><path class="cls-106" d="M140.35,407.19c.23.31.9.29,1.38.17.76-.19.94-.63,1.4-.53a.77.77,0,0,1,.52.36,1.73,1.73,0,0,1,.09.9.73.73,0,0,0,0,.4c.1.17.21.15.29.29s-.1.51,0,.69a.4.4,0,0,0,.32.12l.28-.9c.26,0,.35.1.39.17s-.13.44-.39,1.18a2,2,0,0,0-.1.35c0,.48.39,1,.71,1,.53,0,1.14-1.57,1.09-3a3.64,3.64,0,0,0-1.34-2.95,3.6,3.6,0,0,0-2.27-.53,3.34,3.34,0,0,0-1.76.56,2.37,2.37,0,0,0-1,1.4,1.78,1.78,0,0,0,0,.49c.05-.25.13-.54.2-.54S140.25,407.05,140.35,407.19Z"/></g><path class="cls-3" d="M135.28,455.44l.13-.23A2.44,2.44,0,0,1,137,454l1.12-.24a.94.94,0,0,0,.73-.79l.16-1.25,2.19-.14.13,3.24Z"/><g class="cls-107"><rect class="cls-108" x="135.1" y="453.69" width="2.12" height="2.12"/><polygon class="cls-108" points="135.44 455.17 141.35 454.56 141.35 454.86 135.28 455.44 135.44 455.17"/></g><path class="cls-104" d="M129.75,426l-.39-1.72,7.65-1.79a1.78,1.78,0,0,1,2.19,1.19h0a1.56,1.56,0,0,1-1.45,1.87Z"/><path class="cls-104" d="M137.63,425.44c-.31-.11-.52-.43-.68-.95-.44-1.39.05-2.25.58-4.95a26.53,26.53,0,0,1,1.25-4.4,2.71,2.71,0,0,1,.38-.62,2.54,2.54,0,0,1,.87-.71,2,2,0,0,1,1.26-.26c.91.21,1.39,1.52,1.42,2.46a4.53,4.53,0,0,1-.4,1.76,34,34,0,0,1-1.64,4.54,17.83,17.83,0,0,1-1,1.86C139,425.13,138.17,425.63,137.63,425.44Z"/><path class="cls-104" d="M130.15,424.27c.33.72.22,1.4-.13,1.62s-.77,0-.92-.08a1.74,1.74,0,0,1-.85-.9c-.26-.15-1-.57-.88-.9,0,0,0,0,.12-.3s.08-.31.17-.38.21,0,.34-.14.1-.15.16-.2.83.17,1.22.47A3.81,3.81,0,0,1,130.15,424.27Z"/><path class="cls-109" d="M141.29,413.55a2,2,0,0,0-1.26.26,2.54,2.54,0,0,0-.87.71,2.71,2.71,0,0,0-.38.62,19.36,19.36,0,0,0-1,3.29,6.16,6.16,0,0,1,3.92,1.2c.17-.5.37-1.11.62-1.86a4.53,4.53,0,0,0,.4-1.76C142.68,415.07,142.2,413.76,141.29,413.55Z"/><circle class="cls-108" cx="140.18" cy="453.41" r="0.38"/><path class="cls-110" d="M147.51,432.63a69,69,0,0,0-5.93,7.25l.45,12.51-4,.14c-.18-2.11-.38-4.23-.58-6.36-.26-2.71-.53-5.41-.81-8.07a1.85,1.85,0,0,1,.19-1.06,43.29,43.29,0,0,1,6.37-9.3h6a5.91,5.91,0,0,1-.29,2.72A5.78,5.78,0,0,1,147.51,432.63Z"/><path class="cls-111" d="M149.47,428.43l-10.91-.12c0-2,0-3.65,0-4.78,0-2.1,0-3-.05-4.82,0-.83,0-1.6,0-2.28a3.14,3.14,0,0,1,1.79-2.82h0l1.25-.63a2,2,0,0,0,1,1.11,2.33,2.33,0,0,0,2.69-1.33,7.11,7.11,0,0,1,3,.69,4.88,4.88,0,0,1,1,.58c1.33,1.14,1.1,3.51.79,6.28a32.34,32.34,0,0,1-.78,4.32Z"/><path class="cls-104" d="M129.87,421.45l-.31-1.93,8.58-1.45a2,2,0,0,1,2.33,1.47h0A1.83,1.83,0,0,1,140,421a1.78,1.78,0,0,1-1.27.54Z"/><path class="cls-104" d="M137,420.8a1.47,1.47,0,0,1,.25-1.26c.79-1.41,1.85-1.67,4.43-3.29a29.79,29.79,0,0,1,4.51-2.33,3.26,3.26,0,0,1,.78-.16,2.85,2.85,0,0,1,1.24.17,2.14,2.14,0,0,1,1.16.82c.52.89-.17,2.27-.91,3a5.06,5.06,0,0,1-1.72,1,41.45,41.45,0,0,1-4.91,2.12c-.54.16-1.33.37-2.3.56C138.26,421.63,137.27,421.38,137,420.8Z"/><path class="cls-104" d="M130.43,419.59c.31.83.14,1.57-.26,1.79a1.22,1.22,0,0,1-1-.16,1.94,1.94,0,0,1-.88-1.05c-.28-.18-1-.7-.91-1.05,0,0,0,0,.15-.33s.11-.33.23-.4.22,0,.38-.14.11-.16.18-.21c.24-.18.91.25,1.32.61A4.07,4.07,0,0,1,130.43,419.59Z"/><path class="cls-112" d="M149.38,414.75a2.14,2.14,0,0,0-1.16-.82,2.85,2.85,0,0,0-1.24-.17,3.26,3.26,0,0,0-.78.16,23,23,0,0,0-3.42,1.68,6.79,6.79,0,0,1,2,4.08l2-.91a5.06,5.06,0,0,0,1.72-1C149.21,417,149.9,415.64,149.38,414.75Z"/><polygon class="cls-113" points="186.22 371.04 138.03 371.04 138.03 408.68 181.74 408.68 186.22 371.04"/><polygon class="cls-114" points="286.06 393.99 194.62 377.98 194.47 416.53 286.06 393.99"/><polygon class="cls-115" points="183.53 378.54 181.72 408.64 272.36 381.29 183.53 378.54"/><polygon class="cls-116" points="181.75 383.77 181.72 408.64 272.36 381.29 181.75 383.77"/><polygon class="cls-117" points="186.24 371.01 183.53 378.54 271.92 381.24 186.24 371.01"/><polygon class="cls-118" points="181.75 383.77 177.25 402.05 272.36 381.29 271.92 381.24 181.75 383.77"/><polygon class="cls-119" points="79.34 3.87 79.18 20.16 123.65 13.58 79.34 3.87"/><polygon class="cls-120" points="77.92 6.57 79.18 20.16 123.65 13.58 77.92 6.57"/><polygon class="cls-121" points="81.46 0 79.34 3.87 123.44 13.52 81.46 0"/><polygon class="cls-122" points="77.92 6.57 73.82 16.15 123.65 13.58 123.44 13.52 77.92 6.57"/><polygon class="cls-123" points="355.29 42.73 357.8 58.96 399.05 34.98 355.29 42.73"/><polygon class="cls-124" points="355.01 45.7 357.8 58.96 399.05 34.98 355.01 45.7"/><polygon class="cls-125" points="355.76 38.44 355.29 42.73 398.83 35 355.76 38.44"/><polygon class="cls-126" points="355.01 45.7 354.87 55.91 399.05 34.98 398.83 35 355.01 45.7"/><path class="cls-127" d="M293.36,407.58a2.31,2.31,0,0,0,1.49.92,2.35,2.35,0,0,0,2.18-1,2.38,2.38,0,0,1-.27-.68,3.26,3.26,0,0,1-.06-.9,6.82,6.82,0,0,1,.14-1.18l-3.31.87C293.47,406.28,293.42,406.93,293.36,407.58Z"/><path class="cls-3" d="M296.73,404.83l.8-.55a1.7,1.7,0,0,0,.68-1l.07-.32a10,10,0,0,0,.23-2.38,1.4,1.4,0,0,0-.76-1.21l-.12-.06a7.8,7.8,0,0,0-2.91-.84l-2-.16a1,1,0,0,0-1-.39c-.45.14-.53.76-.42,1.16a1.29,1.29,0,0,0,.62.74l1.68,3.46Z"/><path class="cls-128" d="M292.33,399.72a11.71,11.71,0,0,0-.35,1.13,10.47,10.47,0,0,0-.29,1.56,3.66,3.66,0,0,1-.22.39c-.34.52-.68.82-.59.95s.4.16.47.21.06,1.31.33,1.79c.55,1,3.79,1.21,4.82-.26a2,2,0,0,0,.34-1.2l-.17-.07a1.45,1.45,0,0,1-.68-.66c-.27-.55.16-1-.11-1.22a.5.5,0,0,0-.44-.06c-.4.16-.46,1-.46,1h0l-.61-.14c0-1.45-.38-2-.75-2.2a3.73,3.73,0,0,1-.73-.48A2.59,2.59,0,0,1,292.33,399.72Z"/><path class="cls-129" d="M290.67,421.43c.11,1.54.29,3.8.54,6.54.33,3.52.5,5.28.61,5.87.62,3.16,2.21,8.29,2.68,11.09a3.67,3.67,0,0,1,0,1.55,4.38,4.38,0,0,1-1.41,2.21c-.73.61-1.44.74-1.4,1s.72.39,1.33.28.73-.48,1.75-1a7.29,7.29,0,0,0,1.47-.81.78.78,0,0,0,.13-.19,2.37,2.37,0,0,0,.07-1.84q-.89-12.52-1.75-25.05Z"/><path class="cls-130" d="M294.25,421.16c.6,7.54.83,10.49.85,10.62h0c.16,1.34.32,1.53.34,2.1s-.11.35-.22,1.5c0,.45-.05.81-.06,1s0,.51,0,.91c.11,2.7.56,2.91.9,6.23a37.81,37.81,0,0,1,.25,5c0,.54,0,1.25-.11,2.1a1.94,1.94,0,0,1,.45.62c.24.54.07.91.35,1.18a1.12,1.12,0,0,0,.77.2c.43,0,1.23-.09,1.35-.48s-.26-.55-.52-.93a4,4,0,0,1-.38-2.74c.24-3,.83-6.85,1-8.38.12-1,.21-2.12.21-2.12,0-.28,0-.59.07-1,.2-2.87.23-5.34.3-10.27,0-2.16,0-3.95,0-5.16a.54.54,0,0,0-.05-.42c-.26-.46-1.23-.35-2.43-.24C296.66,421,295.6,421.1,294.25,421.16Z"/><path class="cls-3" d="M296.4,446a4.74,4.74,0,0,1-1.62.3h-.27a1.36,1.36,0,0,1,0,.17,2.73,2.73,0,0,1-.08.27,3.83,3.83,0,0,1-1.19,1.7,1.9,1.9,0,0,0-1.47.89,1.3,1.3,0,0,0-.11.47A2.35,2.35,0,0,0,293,450a3,3,0,0,0,.37-.11,4.44,4.44,0,0,0,1.4-.85,4.92,4.92,0,0,0,1.68-.74c0-.17,0-.35,0-.52Z"/><path class="cls-3" d="M298.24,448.53l0-.36a10.58,10.58,0,0,1-1.94.16v.25c0,.54,0,1.25-.11,2.1a1.94,1.94,0,0,1,.45.62c.24.54.07.91.35,1.18a1.12,1.12,0,0,0,.77.2c.43,0,1.23-.09,1.35-.48s-.26-.55-.52-.93A4,4,0,0,1,298.24,448.53Z"/><path class="cls-131" d="M308.63,396.43a25.47,25.47,0,0,1-1.11,2.74,21.57,21.57,0,0,0-1.79,3.9,10.41,10.41,0,0,0-.33,1.51,25.22,25.22,0,0,0-3.32,2.34,3.23,3.23,0,0,0-.27.23,2.44,2.44,0,0,1-1,.53,2.62,2.62,0,0,1-.77.08c-1.13,0-2.69-.21-3-.24a2.46,2.46,0,0,1-2,.93,2.38,2.38,0,0,1-1.66-.87c-.38,0-1.63.15-2.73.19a2.84,2.84,0,0,1-.8-.08,2.57,2.57,0,0,1-1-.53l-.29-.24a25.22,25.22,0,0,0-3.32-2.34,10.41,10.41,0,0,0-.33-1.51,21.57,21.57,0,0,0-1.79-3.9,25.47,25.47,0,0,1-1.11-2.74l-1.81.47a38.3,38.3,0,0,0,1.65,7c.31.92.64,1.79,1,2.6a15.52,15.52,0,0,0,2.58,2.93,23.18,23.18,0,0,1,2.86,2.53,12.29,12.29,0,0,1,1.29,1.81c0,.11,0,.21,0,.32a32.41,32.41,0,0,0,1.6,7.33,16.68,16.68,0,0,0,9.83-.28c-.06-2.56-.06-5.22,0-8,.83-.93,1.54-1.64,2-2.1,2.67-2.55,4.22-3.2,5.19-5.35a11.77,11.77,0,0,0,.55-1.79c.48-1.75,1.07-4.12,1.65-7Z"/><path class="cls-132" d="M293.47,414.1q0-3.33-.11-6.52l-2.5.13a8.74,8.74,0,0,1-.11,3.37,8.53,8.53,0,0,1-1.2,2.79c0,2.88,0,5.77,0,8.65a14.18,14.18,0,0,0,2.08.67,15,15,0,0,0,1.75.3C293.44,420.45,293.49,417.32,293.47,414.1Z"/><path class="cls-133" d="M300,407.7l-3-.18,0,16.09a4.73,4.73,0,0,0,3.3-1.38,4,4,0,0,0,.7-1.05l0-8a9,9,0,0,1-.88-2.35A9.25,9.25,0,0,1,300,407.7Z"/><path class="cls-128" d="M280.74,396.76a1,1,0,0,0,1,.06,1.5,1.5,0,0,0,.78-1.29c0-.53-.24-.68-.31-1.42a3.71,3.71,0,0,1,0-.94.86.86,0,0,0-.48.23,1,1,0,0,0-.2,1.09,1.6,1.6,0,0,0-.72.49C280.42,395.49,280.29,396.39,280.74,396.76Z"/><line class="cls-134" x1="281.66" y1="396.35" x2="279.83" y2="389.13"/><path class="cls-128" d="M280.25,397.26c-.2-.89-.36-1.58-.51-2.16a1,1,0,0,1,0-.39,1.58,1.58,0,0,1,1.6-1.11c.06,0,.23,0,.27.15s-.08.21,0,.35.13.09.16.19-.15.26-.1.37.12.06.17.14,0,.24-.05.3a1,1,0,0,1-.61.4.74.74,0,0,1,.44.36c.19.39-.15.88-.44,1.11A1.33,1.33,0,0,1,280.25,397.26Z"/><path class="cls-128" d="M309.88,396.57a1,1,0,0,1-1,.06,1.49,1.49,0,0,1-.77-1.29c0-.53.23-.68.3-1.42a3.3,3.3,0,0,0,0-.94.86.86,0,0,1,.48.23,1,1,0,0,1,.2,1.09,1.5,1.5,0,0,1,.72.49C310.2,395.3,310.33,396.2,309.88,396.57Z"/><line class="cls-134" x1="308.96" y1="396.16" x2="310.79" y2="388.94"/><path class="cls-128" d="M310.37,397.08c.2-.9.37-1.59.51-2.17a.85.85,0,0,0,0-.39,1.58,1.58,0,0,0-1.59-1.11c-.07,0-.23,0-.28.15s.08.21,0,.35-.14.1-.16.19.15.26.1.37-.13.06-.17.14,0,.24.05.3a.92.92,0,0,0,.61.4.76.76,0,0,0-.45.36c-.19.39.16.88.44,1.11A1.36,1.36,0,0,0,310.37,397.08Z"/><path class="cls-2" d="M311.41,101.31l2.9,0a2.9,2.9,0,0,0-.06.64,2.81,2.81,0,0,0,.07.63.17.17,0,0,0,.14.12l.82.14a2.4,2.4,0,0,1-.55.9,2.78,2.78,0,0,1-1,.65,3.49,3.49,0,0,1-1.82.34,3,3,0,0,1-2-1.28,3.54,3.54,0,0,0,.52-.22c.36-.19.84-.44.95-.89a3.27,3.27,0,0,0,0-.81C311.42,101.46,311.41,101.37,311.41,101.31Z"/><path class="cls-2" d="M311.2,102.51a4.2,4.2,0,0,0,3-.59c0-.13.05-.33.1-.57a24,24,0,0,1,.8-2.32,2.81,2.81,0,0,0-1.47-2.86,2.93,2.93,0,0,0-3.13.34,2.66,2.66,0,0,0-.86,1.42v1.2a2.79,2.79,0,0,1-.32.48c-.21.26-.36.34-.34.44s.16.16.74.17c0,.29.08.52.11.74.09.55.07.63.11.74C310.11,102.24,310.88,102.43,311.2,102.51Z"/><g class="cls-135"><path class="cls-136" d="M309.82,97.49c.21.29.85.28,1.3.16.7-.18.88-.6,1.31-.5a.74.74,0,0,1,.49.34,1.75,1.75,0,0,1,.08.84.77.77,0,0,0,.05.38c.09.16.19.14.27.28s-.09.48.05.64.11.11.29.11l.27-.84c.24,0,.33.1.37.16s-.12.41-.37,1.1a1.17,1.17,0,0,0-.09.33c0,.45.36,1,.66,1,.5,0,1.07-1.48,1-2.8a3.39,3.39,0,0,0-1.26-2.78,3.33,3.33,0,0,0-2.13-.49,3.15,3.15,0,0,0-1.65.52,2.24,2.24,0,0,0-1,1.31,1.65,1.65,0,0,0,0,.47c.05-.23.12-.51.19-.51S309.73,97.36,309.82,97.49Z"/></g><path class="cls-137" d="M297.3,109.57c.11.24.52,1.07.95,1,.27,0,.46-.41.48-.72a1.07,1.07,0,0,0-.45-.85c-.36-.34-1-.58-1.17-.38S297.17,109.3,297.3,109.57Z"/><path class="cls-3" d="M305.06,142.78l.12-.21a2.31,2.31,0,0,1,1.51-1.11l1.05-.22a.88.88,0,0,0,.69-.74l.15-1.18,2.05-.12.13,3Z"/><g class="cls-138"><rect class="cls-108" x="304.89" y="141.14" width="1.99" height="1.99"/><polygon class="cls-108" points="305.2 142.53 310.76 141.96 310.76 142.24 305.06 142.78 305.2 142.53"/></g><circle class="cls-108" cx="309.66" cy="140.88" r="0.35"/><path class="cls-3" d="M313.24,142l.12-.21a2.33,2.33,0,0,1,1.52-1.11l1-.21a1.19,1.19,0,0,0,.44-.53,1.21,1.21,0,0,0,.07-.69l-.32-.84,1.85-.9,1.28,2.76-3.5,1.49Z"/><g class="cls-139"><rect class="cls-102" x="313.07" y="140.35" width="1.99" height="1.99"/><polygon class="cls-102" points="313.39 141.74 315.68 141.51 319.1 140.01 319.2 140.27 315.7 141.76 313.24 142 313.39 141.74"/><circle class="cls-102" cx="317.47" cy="138.96" r="0.35"/></g><path class="cls-137" d="M301,104.64c.09.91-1.78,1.53-2,1.62s-.85.27-1.07,0c0,0,0-.06-.13-.33-.17-.54-.21-.53-.21-.67s.16-.28.26-.69,0-.44.08-.62c.18-.37.81-.42,1-.44C299.74,103.45,301,103.94,301,104.64Z"/><path class="cls-140" d="M308.68,116.93a37.05,37.05,0,0,0-.06,4.39c0,.92.1,1.8.2,2.63h0a23,23,0,0,0,2.37,8.1l4.6,7.15,3.28-.62c-.89-2.35-1.91-4.82-3.11-7.38q-1.11-2.4-2.27-4.57l.94-9.85Z"/><path class="cls-141" d="M316.54,121.37a65.9,65.9,0,0,0-5.57,6.81q.21,5.87.43,11.74l-3.72.13c-.17-2-.36-4-.55-6-.24-2.55-.49-5.07-.76-7.58a1.71,1.71,0,0,1,.18-1,39.78,39.78,0,0,1,2.84-4.75,41,41,0,0,1,3.14-4h5.67a5.48,5.48,0,0,1-.28,2.56A5.31,5.31,0,0,1,316.54,121.37Z"/><path class="cls-137" d="M303.42,105.91h0l1.59-.64L309.1,104a2.87,2.87,0,0,1,3.4.57,2.15,2.15,0,0,1,.38,1.33h0a1.75,1.75,0,0,1-2,1.63l-6.36.23A1.81,1.81,0,0,1,303.42,105.91Z"/><path class="cls-137" d="M299.82,103.8l5.5,1.41c.82,0,1,.28,1.08.39.34.6-.57,2-1.63,2.16a1.47,1.47,0,0,1-.53-.05l-4.95-2.63Z"/><path class="cls-142" d="M318.38,117.43l-10.24-.11c0-1.89,0-3.43,0-4.49,0-2,0-2.85-.05-4.52s0-3.13,0-4c.55-.23,1.12-.48,1.71-.76.41-.2.8-.39,1.18-.59a1.8,1.8,0,0,0,1,1,2.19,2.19,0,0,0,2.53-1.25,6.18,6.18,0,0,1,2.77.65,5.85,5.85,0,0,1,1.26.86,19.5,19.5,0,0,1,.4,5.58,19.82,19.82,0,0,1-.73,4C318.21,115,318.29,116.24,318.38,117.43Z"/><path class="cls-142" d="M312.5,104.58a2.87,2.87,0,0,0-3.4-.57l-2,.63a7,7,0,0,1,.56,3l3.21-.11a1.75,1.75,0,0,0,2-1.63A2.15,2.15,0,0,0,312.5,104.58Z"/><path class="cls-73" d="M299.56,208.07h-1V107a4.91,4.91,0,0,1,.71-2.59,5,5,0,0,1,3.72-2.26,5.69,5.69,0,0,1,3.78,1.19c3.42,2.69,2.31,9.19.42,13a14.59,14.59,0,0,1-3,4l-.69-.73a13.85,13.85,0,0,0,2.81-3.77c1.68-3.36,2.8-9.4-.15-11.72a4.8,4.8,0,0,0-3.07-1,4,4,0,0,0-3,1.8,3.83,3.83,0,0,0-.56,2.06Z"/><path class="cls-104" d="M300,110.88l-.29-1.81,8.05-1.37a1.85,1.85,0,0,1,2.19,1.39h0a1.63,1.63,0,0,1-1.63,1.84Z"/><path class="cls-104" d="M306.69,110.26a1.35,1.35,0,0,1,.23-1.18c.74-1.32,1.74-1.56,4.16-3.08a27.13,27.13,0,0,1,4.23-2.19,3.5,3.5,0,0,1,.73-.15,2.81,2.81,0,0,1,1.17.15,2.1,2.1,0,0,1,1.08.77c.49.84-.16,2.13-.85,2.84a5,5,0,0,1-1.61.94,36,36,0,0,1-4.61,2,21.8,21.8,0,0,1-2.16.52C307.86,111.05,306.93,110.81,306.69,110.26Z"/><path class="cls-104" d="M300.39,109c.33.87.15,1.65-.27,1.87a1.22,1.22,0,0,1-1.05-.16,2.06,2.06,0,0,1-.93-1.11c-.26-.09-1.1-.4-1.1-.8,0-.15.11-.16.3-.64.11-.25.12-.35.24-.43s.24,0,.4-.14.12-.17.19-.22c.25-.19.95.26,1.39.64A4.12,4.12,0,0,1,300.39,109Z"/><path class="cls-137" d="M298.28,106.35a.47.47,0,0,0,.56-.23.35.35,0,0,0,0-.23.56.56,0,0,0,.29-.35.54.54,0,0,0-.18-.54c.07,0,.36-.21.34-.4s-.54-.42-.81-.29C297.9,104.57,298.24,106.17,298.28,106.35Z"/><path class="cls-143" d="M318.29,104.58a2.14,2.14,0,0,0-1.08-.77,2.81,2.81,0,0,0-1.17-.15,3.5,3.5,0,0,0-.73.15,20.31,20.31,0,0,0-3.21,1.58,6.37,6.37,0,0,1,1.87,3.82l1.86-.85a5,5,0,0,0,1.61-.94C318.13,106.71,318.78,105.42,318.29,104.58Z"/><path class="cls-2" d="M270.44,233.73l.23.4a.33.33,0,0,0,.25.16l.61.05a.31.31,0,0,0,.26-.09l.48-.54h-.5a.27.27,0,0,0,0-.25s-.07-.1-.11-.07-.14.15-.14.15.07-.23,0-.3-.08,0-.12,0-.12.25-.12.25a1,1,0,0,0,0-.27.11.11,0,0,0-.14,0,2.07,2.07,0,0,0-.37.41Z"/><path class="cls-2" d="M280.55,233.78l.25.38a.34.34,0,0,0,.26.14l.61,0a.36.36,0,0,0,.26-.11l.38-.44h-.47a1.49,1.49,0,0,0,0-.34s-.07-.1-.12-.07a.69.69,0,0,0-.13.16s.06-.23,0-.3-.08,0-.13,0-.1.26-.1.26a1,1,0,0,0,0-.27.11.11,0,0,0-.14,0,2.12,2.12,0,0,0-.35.43Z"/><path class="cls-2" d="M353.93,279.72c.21,0,.45-.26.55-.49a1,1,0,0,0,0-.77c-.14-.32-.36-.28-.65-.67s-.31-.71-.41-.71-.16.25-.16.48c0,.41.26.49.34.93s-.09.43,0,.78C353.66,279.4,353.75,279.67,353.93,279.72Z"/><path class="cls-2" d="M354.28,278.32s-1.28-.46-1.46-.77-.15-.57-.3-.57-.1.53-.18.59-.17,0-.19.16a1.41,1.41,0,0,0,0,.54,3.41,3.41,0,0,0,.84,1.09,2.55,2.55,0,0,0,1.19.47c.34,0,.2-1.24.2-1.24Z"/><path class="cls-144" d="M370.21,285.88a35.9,35.9,0,0,0-6.5-1.17l-3.63-.41c-1.11-1-2.27-2.14-3.43-3.4-.66-.71-1.29-1.42-1.87-2.11l-1.24,1.07a26.16,26.16,0,0,0,2.22,3.3,27.16,27.16,0,0,0,3.27,3.46c.87.43,1.8.86,2.79,1.27s2.15.86,3.15,1.2v0C367.4,289.17,369.72,288.05,370.21,285.88Z"/><path class="cls-145" d="M364.94,284c-.08.29.21.5.23,1.17a2.5,2.5,0,0,1-.23,1.1c1.77.68,3.28.74,3.66.13a2.17,2.17,0,0,0,.13-1.18,2.53,2.53,0,0,0-.28-1.38C367.73,282.81,365.17,283.19,364.94,284Z"/><path class="cls-78" d="M370.14,296c-.07-.18-.16-.39-.27-.61a5.48,5.48,0,0,0-.44-.69,6.55,6.55,0,0,1-.7.11c-.26,0-.47,0-.58,0-.63,0-1.85.09-5.24.11a5.41,5.41,0,0,0-.56.69,6.11,6.11,0,0,0-1.05,2.53,75.31,75.31,0,0,0-1.39,10l-.09,3.22c-.07,2.57-.12,5.13-.17,7.67a1,1,0,0,0,.24.42,1.61,1.61,0,0,0,1.3.19,3.32,3.32,0,0,0,1.1-.38,13.36,13.36,0,0,0,1.23-3,12.48,12.48,0,0,0,.44-3.14,12.27,12.27,0,0,0-.35-3,26.06,26.06,0,0,1,1-2.67,25,25,0,0,1,2.42-4.29c.19,2.76.35,5.58.48,8.48q.17,4,.24,7.77l2.25.9a23.54,23.54,0,0,0,.82-7.81,20.82,20.82,0,0,0-.28-2.37c.07-1,.15-2,.27-3.09.09-.86.19-1.69.3-2.5a24.67,24.67,0,0,0-.31-6.65C370.67,297.44,370.29,296.43,370.14,296Z"/><path class="cls-66" d="M369.39,319.23a13,13,0,0,0,1.32-.07c-.13,1-.28,1.9-.39,2.48a20.91,20.91,0,0,0-.4,3.38c0,.36,0,.66-.05.86l-1.29,0-.27-.43-.34.51h-2c-.68,0-1.34,0-2-.08,0-.18-.07-.36-.1-.54l1.81-.49a5.12,5.12,0,0,0,.94-1,6.25,6.25,0,0,0,1-2.83,9.08,9.08,0,0,0,.12-1.88A11,11,0,0,0,369.39,319.23Z"/><path class="cls-2" d="M348.24,282c.27.08.58-.31.71-.59a1.26,1.26,0,0,0,0-1c-.17-.4-.44-.36-.79-.86s-.36-.9-.49-.9-.21.31-.21.58c0,.52.31.63.38,1.19s-.12.54,0,1C347.92,281.62,348,282,348.24,282Z"/><path class="cls-2" d="M348.73,280.29s-1.58-.63-1.8-1-.17-.72-.36-.73-.14.66-.24.73-.22,0-.24.2a1.71,1.71,0,0,0,0,.68,4.1,4.1,0,0,0,1,1.39,3.38,3.38,0,0,0,1.48.65c.42-.05.3-1.56.3-1.56Z"/><path class="cls-57" d="M370.9,287.72a1.68,1.68,0,0,0-.93-2l-.49-.21c-1.59-.63-3.5-1.06-9.75-.46l-3.84.37c-1.37-.81-2.81-1.72-4.28-2.76-.84-.59-1.63-1.19-2.39-1.78l-1,1.37a27.35,27.35,0,0,0,3,2.93,28.19,28.19,0,0,0,4.11,2.86c1,.25,2.05.49,3.17.71s2.4.42,3.5.56a2.4,2.4,0,0,0-.26,1.16,3,3,0,0,0,.53,1.48c.37.61.61,1.7-.06,3.76a15.4,15.4,0,0,0,4.21.3,25.64,25.64,0,0,0,3.84-.63,17.1,17.1,0,0,1-.13-2.5,18.62,18.62,0,0,1,.34-3.09C370.55,289.23,370.69,288.52,370.9,287.72Z"/><path class="cls-145" d="M365.54,278.79a7.67,7.67,0,0,0-1.24,1.93c0,.09,0,.13-.21.22s-.42.14-.38.27.31.31.34.43l-.25,1.84.74.3,2.51,1c0-.1-.95-2.61-.94-2.76s0-.44-.13-.52a9,9,0,0,1-.51-1.73.71.71,0,0,1,0-.52C365.5,279,365.54,278.79,365.54,278.79Z"/><path class="cls-146" d="M369.73,283.55a2.53,2.53,0,0,1-1.86.92,2.14,2.14,0,0,1-2-1.65,5.55,5.55,0,0,0,.08-1.15c0-.29-.14-.69-.3-.7s-.27.39-.38.37-.1-.47-.1-.72c0-1.14-.23-1.2-.14-1.65a2.26,2.26,0,0,1,1.24-1.37,3,3,0,0,1,2.56.19,3.87,3.87,0,0,1,1.83,4A3.38,3.38,0,0,1,369.73,283.55Z"/><path class="cls-146" d="M372,281a1.86,1.86,0,0,1-1.4.69,1.62,1.62,0,0,1-1.54-1.23,3.82,3.82,0,0,0,.07-.87c0-.21-.11-.52-.23-.53s-.2.3-.28.29-.07-.36-.08-.55c0-.85-.17-.9-.1-1.23a1.72,1.72,0,0,1,.93-1,2.22,2.22,0,0,1,1.92.15,2.91,2.91,0,0,1,1.38,3A2.59,2.59,0,0,1,372,281Z"/><path class="cls-66" d="M361,319.23a13,13,0,0,0,1.32-.07c-.13,1-.28,1.9-.39,2.48a19.79,19.79,0,0,0-.4,3.38c0,.36,0,.66-.05.86l-1.3,0-.26-.43-.34.51h-2c-.68,0-1.35,0-2-.08l-.09-.54,1.81-.49a5.12,5.12,0,0,0,.94-1,6.37,6.37,0,0,0,1-2.83,8.38,8.38,0,0,0,.11-1.88A11.25,11.25,0,0,0,361,319.23Z"/><path class="cls-25" d="M332.39,220.75a15.35,15.35,0,1,1,15.35-15.34A15.36,15.36,0,0,1,332.39,220.75Zm0-28.08a12.74,12.74,0,1,0,12.74,12.74A12.75,12.75,0,0,0,332.39,192.67Z"/><circle class="cls-147" cx="332.39" cy="205.41" r="8.7"/></g></g></g></svg>